<?xml version="1.0" encoding="UTF-8"?>
<svg version="1.1" xmlns="http://www.w3.org/2000/svg" width="48" height="48" viewBox="20 20 139 139">
<path d="M0 0 C6.0043748 2.81113911 11.74834654 6.06203376 17.50878906 9.33422852 C18.73760867 10.0262514 19.96677398 10.71766079 21.19628906 11.40844727 C23.42262296 12.65952651 25.64641885 13.91471012 27.86865234 15.1730957 C33.11456919 18.11634938 37.39184874 18.37395141 43.38378906 17.58422852 C47.58379111 15.99020536 51.3402873 13.81207699 55.19628906 11.52172852 C57.29957159 10.32616136 59.40373497 9.13214245 61.50878906 7.93969727 C62.51425781 7.3613916 63.51972656 6.78308594 64.55566406 6.18725586 C68.21206541 4.11474798 71.92689901 2.19139284 75.69628906 0.33422852 C76.74429688 -0.18655273 77.79230469 -0.70733398 78.87207031 -1.24389648 C84.51274649 -3.8756272 89.64051189 -4.34848572 95.50878906 -2.35327148 C100.73044931 1.16567346 104.27853141 5.07186915 105.96414185 11.23873901 C106.92460828 16.60697179 106.68839609 22.11331915 106.68457031 27.54907227 C106.68846434 28.9099592 106.69280045 30.27084493 106.69755554 31.63172913 C106.70498904 34.4752294 106.7047473 37.31860545 106.69946289 40.16210938 C106.69366965 43.78776278 106.71060916 47.4129051 106.73380756 51.03847408 C106.74861057 53.84651105 106.74940778 56.65442673 106.74629784 59.4624958 C106.74705376 61.44319538 106.7608701 63.42387628 106.77497864 65.40452576 C106.73585295 73.05585876 106.55834385 79.62293623 101.58691406 85.82641602 C100.94238281 86.36524414 100.29785156 86.90407227 99.63378906 87.45922852 C98.99957031 88.01352539 98.36535156 88.56782227 97.71191406 89.13891602 C91.67514967 92.88657176 85.34981623 92.87774374 78.46044922 92.85888672 C77.48877304 92.86399765 76.51709686 92.86910858 75.51597595 92.87437439 C72.31820438 92.88822336 69.12064948 92.88731708 65.92285156 92.88500977 C63.68997112 92.88889937 61.45709141 92.89323459 59.22421265 92.897995 C54.54886474 92.9054472 49.87359236 92.90517322 45.19824219 92.89990234 C39.2209012 92.89411025 33.24387032 92.91103754 27.26658058 92.93424702 C22.65620124 92.94901288 18.04589608 92.94985214 13.43549728 92.94673729 C11.23238893 92.9472491 9.02927626 92.95246043 6.82619095 92.96254921 C3.73923111 92.97495096 0.65286897 92.96809921 -2.43408203 92.95654297 C-3.33515182 92.96418671 -4.23622162 92.97183044 -5.16459656 92.97970581 C-11.91786386 92.92411335 -18.51057161 92.01585597 -23.95605469 87.75219727 C-24.48328125 87.09864258 -25.01050781 86.44508789 -25.55371094 85.77172852 C-26.09898438 85.1259082 -26.64425781 84.48008789 -27.20605469 83.81469727 C-30.07862162 79.27110802 -30.86676099 74.84763097 -30.875 69.53808594 C-30.88130432 68.36634323 -30.88760864 67.19460052 -30.894104 65.98735046 C-30.89005554 64.73412491 -30.88600708 63.48089935 -30.88183594 62.18969727 C-30.88374939 60.88776932 -30.88566284 59.58584137 -30.88763428 58.24446106 C-30.89057478 55.49332918 -30.88632474 52.7423276 -30.87695312 49.99121094 C-30.86559293 46.48790881 -30.87210288 42.98491436 -30.88409805 39.48162365 C-30.89312393 36.11345785 -30.88677528 32.74537176 -30.88183594 29.37719727 C-30.8858844 28.1300444 -30.88993286 26.88289154 -30.894104 25.59794617 C-30.80009861 7.9847743 -30.80009861 7.9847743 -25.24121094 2.14672852 C-24.36335938 1.18959961 -24.36335938 1.18959961 -23.46777344 0.21313477 C-16.07243958 -6.29288679 -8.18918932 -3.52802724 0 0 Z " fill="#22C3B1" transform="translate(51.6162109375,45.415771484375)"/>
</svg>
