<?xml version="1.0" encoding="utf-8"?>
<!-- Generator: Adobe Illustrator 22.1.0, SVG Export Plug-In . SVG Version: 6.00 Build 0)  -->
<svg width="48" height="48" version="1.1" id="Layer_1" xmlns="http://www.w3.org/2000/svg" xmlns:xlink="http://www.w3.org/1999/xlink" x="0px"
     y="0px"
     viewBox="0 0 32 32" style="enable-background:new 0 0 32 32;" xml:space="preserve">
<title>playerfm</title>
	<path style="fill: #BC1F29" d="M16,0c-0.2,0-0.3,0-0.5,0c-0.4,0-1,0.1-1.5,0.1C9.6,0.8,5.9,3,3.3,6.2C2.7,7.1,2.2,7.9,1.7,8.8C1.6,9,1.6,9.1,1.5,9.3
	c-0.1,0.3-0.2,0.5-0.3,0.8c-0.1,0.3-0.3,0.7-0.4,1.1l-0.1,0.2C0.2,12.9,0,14.4,0,16V16c0,8.8,7.2,16,16,16c8.2,0,15.1-6.2,15.9-14.4
	l0,0c0.1-0.5,0.1-1,0.1-1.6V16c0-1.9-0.4-3.8-1-5.6c-0.1-0.1-0.1-0.3-0.2-0.4c-0.1-0.2-0.2-0.5-0.3-0.7c-2-4.2-5.7-7.5-10.3-8.7
	c-1-0.3-2.6-0.5-3.8-0.6C16.3,0,16.2,0,16,0L16,0z M19.1,3.8c0.2,0,0.5,0.1,0.9,0.2c2.4,0.8,5,2.9,6.5,5c1,1.5,1.8,3.2,1.8,4
	c0,0.5-0.5,0.9-1,0.9c-0.5,0-0.9-0.4-1.1-0.9c-0.2-0.7-1.1-2.5-1.8-3.4c-1.2-1.6-3.1-3-5-3.7c-1.3-0.5-1.6-1.1-1-1.8
	C18.6,3.9,18.8,3.8,19.1,3.8L19.1,3.8z M13.9,5.7c0.3,0,0.7,0.1,0.9,0.2c1.7,0.9,1.7,3.4-0.2,4.1c-2.2,0.9-3.4,1.8-4.1,3.3
	c-1.5,3.1-0.3,6.8,2.8,8.3c2.3,1.1,4.9,0.7,6.7-1c0.8-0.8,1.3-1.4,1.7-2.5c0.6-1.5,1.2-2.1,2.4-2.1c1.5,0,2.5,1.3,2.2,2.7
	c-0.6,2.8-3,5.7-5.9,7c-1.6,0.7-2.5,0.9-4.5,0.9c-2,0-2.8-0.2-4.4-0.9c-4.2-1.9-6.8-6.4-6.2-10.9c0.5-4.2,3.4-7.7,7.3-9
	C13.1,5.8,13.5,5.7,13.9,5.7L13.9,5.7z M18.5,7c0.3,0,0.7,0.1,1.2,0.4c2.3,1.1,4.1,3,5.1,5.4c0.4,0.9,0.2,1.5-0.5,1.7
	c-0.6,0.2-0.9-0.1-1.4-1.2c-0.9-1.9-2.2-3.3-4-4.1c-1.1-0.5-1.2-0.6-1.3-1.1c0-0.3,0-0.4,0.2-0.7C18,7.1,18.2,7,18.5,7z M18,10.2
	c0.3,0,0.7,0.1,1.1,0.4c1.3,0.8,2.7,2.6,2.7,3.4c0,0.4-0.4,0.9-0.7,1c-0.5,0.1-0.9-0.1-1.4-0.9c-0.6-0.9-1.2-1.5-1.9-1.9
	c-0.6-0.3-0.8-0.5-0.8-1c0-0.3,0.1-0.5,0.3-0.7C17.5,10.3,17.7,10.2,18,10.2L18,10.2z"/>
</svg>
