<svg id="svg" version="1.1" xmlns="http://www.w3.org/2000/svg" xmlns:xlink="http://www.w3.org/1999/xlink" width="48" height="48" viewBox="0, 0, 400,400"><g id="svgg"><path id="path0" d="M91.800 222.000 C 91.936 222.220,92.386 222.400,92.800 222.400 C 93.214 222.400,93.664 222.220,93.800 222.000 C 93.945 221.766,93.530 221.600,92.800 221.600 C 92.070 221.600,91.655 221.766,91.800 222.000 M296.600 222.000 C 296.736 222.220,297.546 222.400,298.400 222.400 C 299.254 222.400,300.064 222.220,300.200 222.000 C 300.353 221.753,299.663 221.600,298.400 221.600 C 297.137 221.600,296.447 221.753,296.600 222.000 M187.800 239.798 C 156.845 244.118,142.150 281.855,161.787 306.600 C 179.102 328.419,212.607 327.391,228.506 304.552 C 230.170 302.162,233.600 295.618,233.600 294.833 C 233.600 294.597,233.944 293.367,234.365 292.102 C 236.255 286.418,236.248 275.128,234.352 269.614 C 233.938 268.411,233.600 267.189,233.600 266.897 C 233.600 264.521,227.917 255.663,223.713 251.488 C 219.485 247.289,210.694 241.600,208.433 241.600 C 208.197 241.600,206.967 241.254,205.702 240.831 C 201.155 239.312,194.171 238.909,187.800 239.798 " stroke="none" fill="#f3f3f3" fill-rule="evenodd"></path><path id="path1" d="M172.400 39.774 C 172.400 40.092,172.222 40.463,172.005 40.597 C 171.768 40.743,171.715 40.552,171.872 40.121 C 172.124 39.433,172.099 39.432,171.336 40.100 C 170.676 40.678,169.743 40.801,165.969 40.805 C 160.906 40.812,159.600 41.025,159.600 41.847 C 159.600 42.281,158.733 42.400,155.563 42.400 C 151.862 42.400,151.508 42.467,151.316 43.200 C 151.128 43.920,150.770 44.000,147.749 44.000 C 144.887 44.000,144.291 44.118,143.707 44.800 C 143.157 45.443,142.527 45.600,140.507 45.600 C 138.487 45.600,137.857 45.757,137.307 46.400 C 136.769 47.029,136.127 47.200,134.311 47.200 C 132.267 47.200,132.000 47.292,132.000 48.000 C 132.000 48.698,131.732 48.801,129.900 48.805 C 127.239 48.812,126.000 49.143,126.000 49.847 C 126.000 50.218,125.508 50.402,124.500 50.405 C 122.411 50.413,121.200 50.795,121.200 51.447 C 121.200 51.836,120.666 52.000,119.400 52.000 C 118.133 52.000,117.363 52.237,116.800 52.800 C 116.297 53.303,115.467 53.600,114.563 53.600 C 113.462 53.600,113.076 53.787,112.916 54.400 C 112.743 55.062,112.370 55.200,110.757 55.200 C 109.240 55.200,108.696 55.378,108.307 56.000 C 107.969 56.542,107.374 56.800,106.466 56.800 C 105.462 56.800,105.073 57.001,104.916 57.600 C 104.752 58.227,104.370 58.400,103.153 58.400 C 101.867 58.400,101.600 58.537,101.600 59.200 C 101.600 59.835,101.332 60.001,100.300 60.005 C 98.400 60.013,97.200 60.416,97.200 61.047 C 97.200 61.395,96.754 61.600,95.996 61.600 C 95.287 61.600,94.511 61.929,94.107 62.400 C 93.728 62.843,92.927 63.200,92.314 63.200 C 91.640 63.200,91.011 63.513,90.707 64.000 C 90.432 64.440,89.808 64.800,89.319 64.800 C 88.831 64.800,88.109 65.139,87.716 65.553 C 87.322 65.968,86.415 66.432,85.700 66.585 C 84.974 66.741,84.400 67.114,84.400 67.432 C 84.400 67.771,83.997 68.000,83.400 68.000 C 82.667 68.000,82.400 68.213,82.400 68.800 C 82.400 69.452,82.133 69.600,80.963 69.600 C 79.862 69.600,79.476 69.787,79.316 70.400 C 79.157 71.006,78.770 71.200,77.716 71.200 C 76.662 71.200,76.275 71.394,76.116 72.000 C 76.001 72.440,75.596 72.800,75.215 72.800 C 74.835 72.800,74.198 73.160,73.800 73.600 C 73.402 74.040,72.727 74.400,72.301 74.400 C 71.862 74.400,71.434 74.747,71.316 75.200 C 71.180 75.719,70.770 76.000,70.149 76.000 C 69.623 76.000,68.884 76.360,68.507 76.800 C 68.130 77.240,67.502 77.600,67.111 77.600 C 66.681 77.600,66.400 77.898,66.400 78.355 C 66.400 78.902,66.013 79.184,65.000 79.374 C 64.162 79.531,63.600 79.870,63.600 80.218 C 63.600 80.542,63.229 80.800,62.763 80.800 C 62.262 80.800,61.841 81.121,61.716 81.600 C 61.600 82.043,61.170 82.400,60.753 82.400 C 60.267 82.400,60.000 82.683,60.000 83.200 C 60.000 83.852,59.733 84.000,58.563 84.000 C 57.462 84.000,57.076 84.187,56.916 84.800 C 56.800 85.243,56.370 85.600,55.953 85.600 C 55.467 85.600,55.200 85.883,55.200 86.400 C 55.200 86.911,54.933 87.200,54.462 87.200 C 54.056 87.200,53.398 87.560,53.000 88.000 C 52.602 88.440,52.044 88.800,51.761 88.800 C 51.477 88.800,51.010 89.127,50.723 89.526 C 50.435 89.926,49.885 90.370,49.500 90.514 C 49.115 90.657,48.800 91.051,48.800 91.387 C 48.800 91.733,48.452 92.000,48.000 92.000 C 47.467 92.000,47.200 92.267,47.200 92.800 C 47.200 93.333,46.933 93.600,46.400 93.600 C 45.882 93.600,45.600 93.867,45.600 94.355 C 45.600 94.902,45.213 95.184,44.200 95.374 C 43.362 95.531,42.800 95.870,42.800 96.218 C 42.800 96.538,42.540 96.800,42.223 96.800 C 41.905 96.800,41.410 97.127,41.123 97.526 C 40.835 97.926,40.285 98.370,39.900 98.514 C 39.515 98.657,39.200 99.030,39.200 99.341 C 39.200 99.652,38.840 100.001,38.400 100.116 C 37.960 100.231,37.600 100.591,37.600 100.916 C 37.600 101.241,37.240 101.601,36.800 101.716 C 36.360 101.831,36.000 102.212,36.000 102.563 C 36.000 102.933,35.665 103.200,35.200 103.200 C 34.667 103.200,34.400 103.467,34.400 104.000 C 34.400 104.533,34.133 104.800,33.600 104.800 C 33.067 104.800,32.800 105.067,32.800 105.600 C 32.800 106.133,32.533 106.400,32.000 106.400 C 31.467 106.400,31.200 106.667,31.200 107.200 C 31.200 107.733,30.933 108.000,30.400 108.000 C 29.867 108.000,29.600 108.267,29.600 108.800 C 29.600 109.333,29.333 109.600,28.800 109.600 C 28.267 109.600,28.000 109.867,28.000 110.400 C 28.000 110.933,27.733 111.200,27.200 111.200 C 26.667 111.200,26.400 111.467,26.400 112.000 C 26.400 112.465,26.133 112.800,25.763 112.800 C 25.412 112.800,25.031 113.160,24.916 113.600 C 24.801 114.040,24.441 114.400,24.116 114.400 C 23.791 114.400,23.431 114.760,23.316 115.200 C 23.201 115.640,22.852 116.000,22.541 116.000 C 22.230 116.000,21.857 116.315,21.714 116.700 C 21.570 117.085,21.126 117.635,20.726 117.923 C 20.327 118.210,20.000 118.705,20.000 119.023 C 20.000 119.340,19.738 119.600,19.418 119.600 C 19.070 119.600,18.731 120.162,18.574 121.000 C 18.384 122.013,18.102 122.400,17.555 122.400 C 17.067 122.400,16.800 122.682,16.800 123.200 C 16.800 123.733,16.533 124.000,16.000 124.000 C 15.467 124.000,15.200 124.267,15.200 124.800 C 15.200 125.252,14.933 125.600,14.587 125.600 C 14.251 125.600,13.857 125.915,13.714 126.300 C 13.570 126.685,13.126 127.235,12.726 127.523 C 12.307 127.824,12.000 128.544,12.000 129.223 C 12.000 130.133,11.819 130.400,11.200 130.400 C 10.667 130.400,10.400 130.667,10.400 131.200 C 10.400 131.733,10.133 132.000,9.600 132.000 C 9.083 132.000,8.800 132.267,8.800 132.753 C 8.800 133.170,8.443 133.600,8.000 133.716 C 7.387 133.876,7.200 134.262,7.200 135.363 C 7.200 136.533,7.052 136.800,6.400 136.800 C 5.883 136.800,5.600 137.067,5.600 137.553 C 5.600 137.970,5.243 138.400,4.800 138.516 C 4.360 138.631,4.000 139.012,4.000 139.363 C 4.000 139.713,3.640 140.360,3.200 140.800 C 2.760 141.240,2.400 141.939,2.400 142.353 C 2.400 142.770,2.043 143.200,1.600 143.316 C 0.987 143.476,0.800 143.862,0.800 144.963 C 0.800 145.753,0.620 146.400,0.400 146.400 C 0.144 146.400,0.000 149.867,0.000 156.000 C 0.000 162.133,0.144 165.600,0.400 165.600 C 0.620 165.600,0.800 166.247,0.800 167.037 C 0.800 168.115,0.991 168.525,1.562 168.674 C 2.048 168.801,2.418 169.368,2.581 170.237 C 2.732 171.046,3.073 171.600,3.418 171.600 C 3.742 171.600,4.000 171.971,4.000 172.437 C 4.000 172.925,4.319 173.358,4.763 173.474 C 5.183 173.584,5.616 174.017,5.726 174.437 C 5.842 174.881,6.275 175.200,6.763 175.200 C 7.229 175.200,7.600 175.458,7.600 175.782 C 7.600 176.127,8.154 176.468,8.963 176.619 C 9.832 176.782,10.399 177.152,10.526 177.638 C 10.672 178.196,11.084 178.400,12.066 178.400 C 12.974 178.400,13.569 178.658,13.907 179.200 C 14.779 180.596,34.000 180.360,34.000 178.953 C 34.000 178.588,34.474 178.400,35.397 178.400 C 36.360 178.400,36.948 178.152,37.293 177.600 C 37.568 177.160,38.109 176.800,38.496 176.800 C 38.920 176.800,39.200 176.499,39.200 176.045 C 39.200 175.498,39.587 175.216,40.600 175.026 C 41.633 174.833,42.000 174.559,42.000 173.982 C 42.000 173.473,42.273 173.200,42.782 173.200 C 43.359 173.200,43.633 172.833,43.826 171.800 C 44.016 170.787,44.298 170.400,44.845 170.400 C 45.318 170.400,45.600 170.119,45.600 169.647 C 45.600 169.230,45.957 168.800,46.400 168.684 C 47.013 168.524,47.200 168.138,47.200 167.037 C 47.200 165.867,47.348 165.600,48.000 165.600 C 48.533 165.600,48.800 165.333,48.800 164.800 C 48.800 164.348,49.067 164.000,49.413 164.000 C 49.749 164.000,50.143 163.685,50.286 163.300 C 50.430 162.915,50.874 162.365,51.274 162.077 C 51.693 161.776,52.000 161.056,52.000 160.377 C 52.000 159.467,52.181 159.200,52.800 159.200 C 53.333 159.200,53.600 158.933,53.600 158.400 C 53.600 157.867,53.867 157.600,54.400 157.600 C 54.933 157.600,55.200 157.333,55.200 156.800 C 55.200 156.348,55.467 156.000,55.813 156.000 C 56.149 156.000,56.543 155.685,56.686 155.300 C 56.830 154.915,57.274 154.365,57.674 154.077 C 58.073 153.790,58.400 153.323,58.400 153.039 C 58.400 152.756,58.760 152.198,59.200 151.800 C 59.640 151.402,60.000 150.744,60.000 150.338 C 60.000 149.867,60.289 149.600,60.800 149.600 C 61.333 149.600,61.600 149.333,61.600 148.800 C 61.600 148.267,61.867 148.000,62.400 148.000 C 62.933 148.000,63.200 147.733,63.200 147.200 C 63.200 146.667,63.467 146.400,64.000 146.400 C 64.533 146.400,64.800 146.133,64.800 145.600 C 64.800 145.067,65.067 144.800,65.600 144.800 C 66.133 144.800,66.400 144.533,66.400 144.000 C 66.400 143.467,66.667 143.200,67.200 143.200 C 67.733 143.200,68.000 142.933,68.000 142.400 C 68.000 141.867,68.267 141.600,68.800 141.600 C 69.333 141.600,69.600 141.333,69.600 140.800 C 69.600 140.267,69.867 140.000,70.400 140.000 C 70.933 140.000,71.200 139.733,71.200 139.200 C 71.200 138.667,71.467 138.400,72.000 138.400 C 72.533 138.400,72.800 138.133,72.800 137.600 C 72.800 137.067,73.067 136.800,73.600 136.800 C 74.133 136.800,74.400 136.533,74.400 136.000 C 74.400 135.467,74.667 135.200,75.200 135.200 C 75.718 135.200,76.000 134.933,76.000 134.445 C 76.000 133.898,76.387 133.616,77.400 133.426 C 78.238 133.269,78.800 132.930,78.800 132.582 C 78.800 132.262,79.060 132.000,79.377 132.000 C 79.695 132.000,80.190 131.673,80.477 131.274 C 80.765 130.874,81.315 130.430,81.700 130.286 C 82.085 130.143,82.400 129.749,82.400 129.413 C 82.400 129.067,82.748 128.800,83.200 128.800 C 83.733 128.800,84.000 128.533,84.000 128.000 C 84.000 127.489,84.267 127.200,84.738 127.200 C 85.144 127.200,85.802 126.840,86.200 126.400 C 86.598 125.960,87.273 125.600,87.699 125.600 C 88.138 125.600,88.566 125.253,88.684 124.800 C 88.800 124.357,89.230 124.000,89.647 124.000 C 90.119 124.000,90.400 123.718,90.400 123.245 C 90.400 122.698,90.787 122.416,91.800 122.226 C 92.638 122.069,93.200 121.730,93.200 121.382 C 93.200 121.058,93.571 120.800,94.037 120.800 C 94.538 120.800,94.959 120.479,95.084 120.000 C 95.200 119.557,95.630 119.200,96.047 119.200 C 96.461 119.200,97.160 118.840,97.600 118.400 C 98.040 117.960,98.687 117.600,99.037 117.600 C 99.388 117.600,99.769 117.240,99.884 116.800 C 100.032 116.234,100.430 116.000,101.243 116.000 C 101.960 116.000,102.581 115.699,102.893 115.200 C 103.168 114.760,103.709 114.400,104.096 114.400 C 104.533 114.400,104.800 114.097,104.800 113.600 C 104.800 112.948,105.067 112.800,106.237 112.800 C 107.338 112.800,107.724 112.613,107.884 112.000 C 108.043 111.394,108.430 111.200,109.484 111.200 C 110.538 111.200,110.925 111.006,111.084 110.400 C 111.243 109.794,111.630 109.600,112.684 109.600 C 113.738 109.600,114.125 109.406,114.284 108.800 C 114.443 108.194,114.830 108.000,115.884 108.000 C 116.938 108.000,117.325 107.806,117.484 107.200 C 117.643 106.594,118.030 106.400,119.084 106.400 C 120.138 106.400,120.525 106.206,120.684 105.600 C 120.843 104.994,121.230 104.800,122.284 104.800 C 123.338 104.800,123.725 104.606,123.884 104.000 C 124.048 103.373,124.430 103.200,125.647 103.200 C 126.933 103.200,127.200 103.063,127.200 102.400 C 127.200 101.695,127.467 101.600,129.437 101.600 C 131.338 101.600,131.706 101.480,131.884 100.800 C 132.048 100.173,132.430 100.000,133.647 100.000 C 134.667 100.000,135.475 99.725,136.000 99.200 C 136.533 98.667,137.333 98.400,138.400 98.400 C 139.733 98.400,140.000 98.267,140.000 97.600 C 140.000 96.889,140.267 96.800,142.400 96.800 C 144.267 96.800,144.978 96.622,145.600 96.000 C 146.209 95.391,146.933 95.200,148.637 95.200 C 150.538 95.200,150.906 95.080,151.084 94.400 C 151.270 93.690,151.630 93.600,154.284 93.600 C 156.938 93.600,157.298 93.510,157.484 92.800 C 157.668 92.095,158.032 91.999,160.547 91.995 C 163.934 91.988,165.200 91.705,165.200 90.953 C 165.200 90.516,166.121 90.400,169.604 90.400 C 173.513 90.400,174.085 90.310,174.693 89.600 C 175.333 88.852,175.876 88.800,182.989 88.795 C 191.053 88.789,192.400 88.640,192.400 87.753 C 192.400 86.742,206.979 86.968,208.291 88.000 C 209.230 88.739,209.914 88.800,217.254 88.800 C 223.753 88.800,225.200 88.901,225.200 89.353 C 225.200 90.152,226.493 90.388,230.900 90.395 C 233.951 90.399,234.800 90.520,234.800 90.953 C 234.800 91.705,236.066 91.988,239.453 91.995 C 241.968 91.999,242.332 92.095,242.516 92.800 C 242.702 93.510,243.062 93.600,245.716 93.600 C 248.370 93.600,248.730 93.690,248.916 94.400 C 249.094 95.080,249.462 95.200,251.363 95.200 C 253.067 95.200,253.791 95.391,254.400 96.000 C 255.022 96.622,255.733 96.800,257.600 96.800 C 259.733 96.800,260.000 96.889,260.000 97.600 C 260.000 98.281,260.267 98.400,261.800 98.400 C 263.066 98.400,263.600 98.564,263.600 98.953 C 263.600 99.578,264.797 99.986,266.653 99.995 C 267.568 99.999,267.963 100.216,268.116 100.800 C 268.294 101.480,268.662 101.600,270.563 101.600 C 272.533 101.600,272.800 101.695,272.800 102.400 C 272.800 103.063,273.067 103.200,274.353 103.200 C 275.570 103.200,275.952 103.373,276.116 104.000 C 276.275 104.606,276.662 104.800,277.716 104.800 C 278.770 104.800,279.157 104.994,279.316 105.600 C 279.475 106.206,279.862 106.400,280.916 106.400 C 281.970 106.400,282.357 106.594,282.516 107.200 C 282.675 107.806,283.062 108.000,284.116 108.000 C 285.170 108.000,285.557 108.194,285.716 108.800 C 285.875 109.406,286.262 109.600,287.316 109.600 C 288.370 109.600,288.757 109.794,288.916 110.400 C 289.075 111.006,289.462 111.200,290.516 111.200 C 291.570 111.200,291.957 111.394,292.116 112.000 C 292.276 112.613,292.662 112.800,293.763 112.800 C 294.933 112.800,295.200 112.948,295.200 113.600 C 295.200 114.117,295.467 114.400,295.953 114.400 C 296.370 114.400,296.800 114.757,296.916 115.200 C 297.076 115.813,297.462 116.000,298.563 116.000 C 299.733 116.000,300.000 116.148,300.000 116.800 C 300.000 117.387,300.267 117.600,301.000 117.600 C 301.608 117.600,302.000 117.828,302.000 118.182 C 302.000 118.530,302.562 118.869,303.400 119.026 C 304.413 119.216,304.800 119.498,304.800 120.045 C 304.800 120.502,305.081 120.800,305.511 120.800 C 305.902 120.800,306.530 121.160,306.907 121.600 C 307.284 122.040,308.044 122.400,308.596 122.400 C 309.333 122.400,309.600 122.613,309.600 123.200 C 309.600 123.717,309.867 124.000,310.353 124.000 C 310.770 124.000,311.200 124.357,311.316 124.800 C 311.441 125.279,311.862 125.600,312.363 125.600 C 312.829 125.600,313.200 125.858,313.200 126.182 C 313.200 126.530,313.762 126.869,314.600 127.026 C 315.613 127.216,316.000 127.498,316.000 128.045 C 316.000 128.518,316.281 128.800,316.753 128.800 C 317.170 128.800,317.600 129.157,317.716 129.600 C 317.831 130.040,318.212 130.400,318.563 130.400 C 318.913 130.400,319.200 130.676,319.200 131.013 C 319.200 131.349,319.515 131.738,319.900 131.877 C 320.285 132.015,320.922 132.459,321.316 132.864 C 321.709 133.269,322.474 133.600,323.016 133.600 C 323.733 133.600,324.000 133.817,324.000 134.400 C 324.000 134.933,324.267 135.200,324.800 135.200 C 325.333 135.200,325.600 135.467,325.600 136.000 C 325.600 136.533,325.867 136.800,326.400 136.800 C 326.933 136.800,327.200 137.067,327.200 137.600 C 327.200 138.133,327.467 138.400,328.000 138.400 C 328.533 138.400,328.800 138.667,328.800 139.200 C 328.800 139.733,329.067 140.000,329.600 140.000 C 330.133 140.000,330.400 140.267,330.400 140.800 C 330.400 141.333,330.667 141.600,331.200 141.600 C 331.733 141.600,332.000 141.867,332.000 142.400 C 332.000 142.933,332.267 143.200,332.800 143.200 C 333.333 143.200,333.600 143.467,333.600 144.000 C 333.600 144.533,333.867 144.800,334.400 144.800 C 334.933 144.800,335.200 145.067,335.200 145.600 C 335.200 146.133,335.467 146.400,336.000 146.400 C 336.533 146.400,336.800 146.667,336.800 147.200 C 336.800 147.733,337.067 148.000,337.600 148.000 C 338.133 148.000,338.400 148.267,338.400 148.800 C 338.400 149.333,338.667 149.600,339.200 149.600 C 339.733 149.600,340.000 149.867,340.000 150.400 C 340.000 150.840,340.360 151.560,340.800 152.000 C 341.240 152.440,341.600 152.970,341.600 153.177 C 341.600 153.385,341.927 153.790,342.326 154.077 C 342.726 154.365,343.170 154.915,343.314 155.300 C 343.457 155.685,343.851 156.000,344.187 156.000 C 344.533 156.000,344.800 156.348,344.800 156.800 C 344.800 157.333,345.067 157.600,345.600 157.600 C 346.133 157.600,346.400 157.867,346.400 158.400 C 346.400 158.933,346.667 159.200,347.200 159.200 C 347.819 159.200,348.000 159.467,348.000 160.377 C 348.000 161.056,348.307 161.776,348.726 162.077 C 349.126 162.365,349.570 162.915,349.714 163.300 C 349.857 163.685,350.251 164.000,350.587 164.000 C 350.933 164.000,351.200 164.348,351.200 164.800 C 351.200 165.333,351.467 165.600,352.000 165.600 C 352.652 165.600,352.800 165.867,352.800 167.037 C 352.800 168.138,352.987 168.524,353.600 168.684 C 354.043 168.800,354.400 169.230,354.400 169.647 C 354.400 170.119,354.682 170.400,355.155 170.400 C 355.702 170.400,355.984 170.787,356.174 171.800 C 356.367 172.833,356.641 173.200,357.218 173.200 C 357.727 173.200,358.000 173.473,358.000 173.982 C 358.000 174.559,358.367 174.833,359.400 175.026 C 360.413 175.216,360.800 175.498,360.800 176.045 C 360.800 176.499,361.080 176.800,361.504 176.800 C 361.891 176.800,362.432 177.160,362.707 177.600 C 363.052 178.152,363.640 178.400,364.603 178.400 C 365.526 178.400,366.000 178.588,366.000 178.953 C 366.000 180.360,385.221 180.596,386.093 179.200 C 386.431 178.658,387.026 178.400,387.934 178.400 C 388.916 178.400,389.328 178.196,389.474 177.638 C 389.601 177.152,390.168 176.782,391.037 176.619 C 391.846 176.468,392.400 176.127,392.400 175.782 C 392.400 175.458,392.771 175.200,393.237 175.200 C 393.725 175.200,394.158 174.881,394.274 174.437 C 394.384 174.017,394.817 173.584,395.237 173.474 C 395.681 173.358,396.000 172.925,396.000 172.437 C 396.000 171.971,396.258 171.600,396.582 171.600 C 396.927 171.600,397.268 171.046,397.419 170.237 C 397.582 169.368,397.952 168.801,398.438 168.674 C 399.009 168.525,399.200 168.115,399.200 167.037 C 399.200 166.247,399.380 165.600,399.600 165.600 C 399.856 165.600,400.000 162.133,400.000 156.000 C 400.000 149.867,399.856 146.400,399.600 146.400 C 399.380 146.400,399.200 145.753,399.200 144.963 C 399.200 143.862,399.013 143.476,398.400 143.316 C 397.957 143.200,397.600 142.770,397.600 142.353 C 397.600 141.939,397.240 141.240,396.800 140.800 C 396.360 140.360,396.000 139.713,396.000 139.363 C 396.000 139.012,395.640 138.631,395.200 138.516 C 394.757 138.400,394.400 137.970,394.400 137.553 C 394.400 137.067,394.117 136.800,393.600 136.800 C 392.948 136.800,392.800 136.533,392.800 135.363 C 392.800 134.262,392.613 133.876,392.000 133.716 C 391.557 133.600,391.200 133.170,391.200 132.753 C 391.200 132.267,390.917 132.000,390.400 132.000 C 389.867 132.000,389.600 131.733,389.600 131.200 C 389.600 130.667,389.333 130.400,388.800 130.400 C 388.181 130.400,388.000 130.133,388.000 129.223 C 388.000 128.544,387.693 127.824,387.274 127.523 C 386.874 127.235,386.430 126.685,386.286 126.300 C 386.143 125.915,385.749 125.600,385.413 125.600 C 385.067 125.600,384.800 125.252,384.800 124.800 C 384.800 124.267,384.533 124.000,384.000 124.000 C 383.467 124.000,383.200 123.733,383.200 123.200 C 383.200 122.682,382.933 122.400,382.445 122.400 C 381.898 122.400,381.616 122.013,381.426 121.000 C 381.269 120.162,380.930 119.600,380.582 119.600 C 380.262 119.600,380.000 119.340,380.000 119.023 C 380.000 118.705,379.673 118.210,379.274 117.923 C 378.874 117.635,378.430 117.085,378.286 116.700 C 378.143 116.315,377.770 116.000,377.459 116.000 C 377.148 116.000,376.799 115.640,376.684 115.200 C 376.569 114.760,376.209 114.400,375.884 114.400 C 375.559 114.400,375.199 114.040,375.084 113.600 C 374.969 113.160,374.588 112.800,374.237 112.800 C 373.867 112.800,373.600 112.465,373.600 112.000 C 373.600 111.467,373.333 111.200,372.800 111.200 C 372.267 111.200,372.000 110.933,372.000 110.400 C 372.000 109.867,371.733 109.600,371.200 109.600 C 370.667 109.600,370.400 109.333,370.400 108.800 C 370.400 108.267,370.133 108.000,369.600 108.000 C 369.067 108.000,368.800 107.733,368.800 107.200 C 368.800 106.667,368.533 106.400,368.000 106.400 C 367.467 106.400,367.200 106.133,367.200 105.600 C 367.200 105.067,366.933 104.800,366.400 104.800 C 365.867 104.800,365.600 104.533,365.600 104.000 C 365.600 103.483,365.333 103.200,364.847 103.200 C 364.430 103.200,364.000 102.843,363.884 102.400 C 363.769 101.960,363.409 101.600,363.084 101.600 C 362.759 101.600,362.399 101.240,362.284 100.800 C 362.169 100.360,361.809 100.000,361.484 100.000 C 361.159 100.000,360.799 99.640,360.684 99.200 C 360.569 98.760,360.188 98.400,359.837 98.400 C 359.487 98.400,359.200 98.124,359.200 97.787 C 359.200 97.451,358.885 97.062,358.500 96.923 C 358.115 96.785,357.478 96.341,357.084 95.936 C 356.691 95.531,355.926 95.200,355.384 95.200 C 354.667 95.200,354.400 94.983,354.400 94.400 C 354.400 93.867,354.133 93.600,353.600 93.600 C 353.067 93.600,352.800 93.333,352.800 92.800 C 352.800 92.283,352.533 92.000,352.047 92.000 C 351.630 92.000,351.200 91.643,351.084 91.200 C 350.969 90.760,350.609 90.400,350.284 90.400 C 349.959 90.400,349.599 90.040,349.484 89.600 C 349.366 89.147,348.938 88.800,348.499 88.800 C 348.073 88.800,347.398 88.440,347.000 88.000 C 346.602 87.560,345.944 87.200,345.538 87.200 C 345.067 87.200,344.800 86.911,344.800 86.400 C 344.800 85.883,344.533 85.600,344.047 85.600 C 343.630 85.600,343.200 85.243,343.084 84.800 C 342.969 84.360,342.588 84.000,342.237 84.000 C 341.887 84.000,341.240 83.640,340.800 83.200 C 340.360 82.760,339.640 82.400,339.200 82.400 C 338.667 82.400,338.400 82.133,338.400 81.600 C 338.400 81.103,338.133 80.800,337.696 80.800 C 337.309 80.800,336.768 80.440,336.493 80.000 C 336.174 79.490,335.560 79.200,334.797 79.200 C 333.867 79.200,333.600 79.022,333.600 78.400 C 333.600 77.903,333.333 77.600,332.896 77.600 C 332.509 77.600,331.968 77.240,331.693 76.800 C 331.374 76.290,330.760 76.000,329.997 76.000 C 329.067 76.000,328.800 75.822,328.800 75.200 C 328.800 74.613,328.533 74.400,327.800 74.400 C 327.192 74.400,326.800 74.172,326.800 73.818 C 326.800 73.473,326.246 73.132,325.437 72.981 C 324.568 72.818,324.001 72.448,323.874 71.962 C 323.725 71.391,323.315 71.200,322.237 71.200 C 321.067 71.200,320.800 71.052,320.800 70.400 C 320.800 69.827,320.533 69.600,319.862 69.600 C 319.346 69.600,318.598 69.240,318.200 68.800 C 317.802 68.360,317.184 68.000,316.827 68.000 C 316.470 68.000,315.870 67.640,315.493 67.200 C 315.116 66.760,314.377 66.400,313.851 66.400 C 313.230 66.400,312.820 66.119,312.684 65.600 C 312.525 64.994,312.138 64.800,311.084 64.800 C 310.030 64.800,309.643 64.606,309.484 64.000 C 309.325 63.394,308.938 63.200,307.884 63.200 C 306.830 63.200,306.443 63.006,306.284 62.400 C 306.127 61.801,305.738 61.600,304.734 61.600 C 303.826 61.600,303.231 61.342,302.893 60.800 C 302.574 60.290,301.960 60.000,301.197 60.000 C 300.533 60.000,299.643 59.643,299.200 59.200 C 298.675 58.675,297.867 58.400,296.847 58.400 C 295.630 58.400,295.248 58.227,295.084 57.600 C 294.925 56.994,294.538 56.800,293.484 56.800 C 292.430 56.800,292.043 56.606,291.884 56.000 C 291.707 55.323,291.338 55.200,289.484 55.200 C 287.630 55.200,287.261 55.077,287.084 54.400 C 286.918 53.764,286.538 53.600,285.237 53.600 C 284.110 53.600,283.600 53.428,283.600 53.047 C 283.600 52.428,282.406 52.014,280.596 52.005 C 279.830 52.002,279.211 51.709,278.893 51.200 C 278.507 50.582,277.960 50.400,276.486 50.400 C 275.073 50.400,274.400 50.192,273.893 49.600 C 273.382 49.004,272.713 48.800,271.266 48.800 C 269.832 48.800,269.135 48.591,268.600 48.000 C 268.040 47.381,267.368 47.200,265.634 47.200 C 263.826 47.200,263.296 47.045,262.893 46.400 C 262.473 45.728,261.960 45.600,259.693 45.600 C 257.426 45.600,256.912 45.472,256.493 44.800 C 256.054 44.098,255.560 44.000,252.443 44.000 C 249.230 44.000,248.873 43.924,248.684 43.200 C 248.492 42.467,248.138 42.400,244.437 42.400 C 241.267 42.400,240.400 42.281,240.400 41.847 C 240.400 41.001,239.079 40.811,233.144 40.805 C 228.196 40.801,227.694 40.735,227.744 40.100 C 227.797 39.440,226.200 39.394,200.100 39.297 C 176.141 39.208,172.400 39.273,172.400 39.774 M173.716 120.000 C 173.523 120.738,173.170 120.800,169.157 120.800 C 165.240 120.800,164.757 120.880,164.307 121.600 C 163.877 122.288,163.374 122.400,160.704 122.400 C 157.867 122.400,157.600 122.469,157.600 123.200 C 157.600 123.930,157.333 124.000,154.563 124.000 C 151.862 124.000,151.502 124.089,151.316 124.800 C 151.139 125.477,150.770 125.600,148.916 125.600 C 147.062 125.600,146.693 125.723,146.516 126.400 C 146.339 127.077,145.970 127.200,144.116 127.200 C 142.262 127.200,141.893 127.323,141.716 128.000 C 141.554 128.620,141.170 128.800,140.015 128.800 C 139.032 128.800,138.277 129.073,137.800 129.600 C 137.309 130.142,136.568 130.400,135.501 130.400 C 134.262 130.400,133.880 130.571,133.716 131.200 C 133.557 131.806,133.170 132.000,132.116 132.000 C 131.062 132.000,130.675 132.194,130.516 132.800 C 130.352 133.427,129.970 133.600,128.753 133.600 C 127.467 133.600,127.200 133.737,127.200 134.400 C 127.200 135.052,126.933 135.200,125.763 135.200 C 124.662 135.200,124.276 135.387,124.116 136.000 C 123.957 136.606,123.570 136.800,122.516 136.800 C 121.462 136.800,121.075 136.994,120.916 137.600 C 120.780 138.119,120.370 138.400,119.749 138.400 C 119.223 138.400,118.484 138.760,118.107 139.200 C 117.730 139.640,117.102 140.000,116.711 140.000 C 116.267 140.000,116.000 140.300,116.000 140.800 C 116.000 141.452,115.733 141.600,114.563 141.600 C 113.462 141.600,113.076 141.787,112.916 142.400 C 112.800 142.843,112.370 143.200,111.953 143.200 C 111.467 143.200,111.200 143.483,111.200 144.000 C 111.200 144.652,110.933 144.800,109.763 144.800 C 108.662 144.800,108.276 144.987,108.116 145.600 C 108.000 146.043,107.570 146.400,107.153 146.400 C 106.667 146.400,106.400 146.683,106.400 147.200 C 106.400 147.711,106.133 148.000,105.662 148.000 C 105.256 148.000,104.598 148.360,104.200 148.800 C 103.802 149.240,103.127 149.600,102.701 149.600 C 102.262 149.600,101.834 149.947,101.716 150.400 C 101.600 150.843,101.170 151.200,100.753 151.200 C 100.267 151.200,100.000 151.483,100.000 152.000 C 100.000 152.533,99.733 152.800,99.200 152.800 C 98.667 152.800,98.400 153.067,98.400 153.600 C 98.400 154.133,98.133 154.400,97.600 154.400 C 97.067 154.400,96.800 154.667,96.800 155.200 C 96.800 155.665,96.533 156.000,96.163 156.000 C 95.466 156.000,94.048 157.013,91.616 159.250 C 90.749 160.047,89.761 160.806,89.420 160.937 C 89.079 161.068,88.800 161.451,88.800 161.787 C 88.800 162.124,88.524 162.400,88.187 162.400 C 87.851 162.400,87.457 162.715,87.314 163.100 C 87.170 163.485,86.726 164.035,86.326 164.323 C 85.927 164.610,85.600 165.105,85.600 165.423 C 85.600 165.740,85.338 166.000,85.018 166.000 C 84.670 166.000,84.331 166.562,84.174 167.400 C 83.984 168.413,83.702 168.800,83.155 168.800 C 82.667 168.800,82.400 169.082,82.400 169.600 C 82.400 170.133,82.133 170.400,81.600 170.400 C 81.067 170.400,80.800 170.667,80.800 171.200 C 80.800 171.733,80.533 172.000,80.000 172.000 C 79.467 172.000,79.200 172.267,79.200 172.800 C 79.200 173.252,78.933 173.600,78.587 173.600 C 78.251 173.600,77.862 173.915,77.723 174.300 C 77.585 174.685,77.141 175.322,76.736 175.716 C 76.331 176.109,76.000 176.874,76.000 177.416 C 76.000 178.133,75.783 178.400,75.200 178.400 C 74.683 178.400,74.400 178.667,74.400 179.153 C 74.400 179.570,74.043 180.000,73.600 180.116 C 72.987 180.276,72.800 180.662,72.800 181.763 C 72.800 182.933,72.652 183.200,72.000 183.200 C 71.483 183.200,71.200 183.467,71.200 183.953 C 71.200 184.370,70.843 184.800,70.400 184.916 C 69.801 185.073,69.600 185.462,69.600 186.466 C 69.600 187.374,69.342 187.969,68.800 188.307 C 68.038 188.783,68.000 189.240,68.000 197.841 C 68.000 206.538,68.030 206.883,68.800 207.084 C 69.406 207.243,69.600 207.630,69.600 208.684 C 69.600 209.716,69.797 210.126,70.362 210.274 C 70.848 210.401,71.218 210.968,71.381 211.837 C 71.532 212.646,71.873 213.200,72.218 213.200 C 72.542 213.200,72.800 213.571,72.800 214.037 C 72.800 214.525,73.119 214.958,73.563 215.074 C 73.983 215.184,74.416 215.617,74.526 216.037 C 74.642 216.481,75.075 216.800,75.563 216.800 C 76.029 216.800,76.400 217.058,76.400 217.382 C 76.400 217.727,76.954 218.068,77.763 218.219 C 78.632 218.382,79.199 218.752,79.326 219.238 C 79.474 219.803,79.884 220.000,80.916 220.000 C 81.970 220.000,82.357 220.194,82.516 220.800 C 82.718 221.573,83.062 221.600,92.800 221.600 C 102.538 221.600,102.882 221.573,103.084 220.800 C 103.243 220.194,103.630 220.000,104.684 220.000 C 105.738 220.000,106.125 219.806,106.284 219.200 C 106.399 218.760,106.804 218.400,107.185 218.400 C 107.565 218.400,108.202 218.040,108.600 217.600 C 108.998 217.160,109.673 216.800,110.099 216.800 C 110.526 216.800,110.965 216.457,111.074 216.037 C 111.184 215.617,111.617 215.184,112.037 215.074 C 112.609 214.925,112.800 214.515,112.800 213.437 C 112.800 212.267,112.948 212.000,113.600 212.000 C 114.133 212.000,114.400 211.733,114.400 211.200 C 114.400 210.667,114.667 210.400,115.200 210.400 C 115.697 210.400,116.000 210.133,116.000 209.696 C 116.000 209.309,116.360 208.768,116.800 208.493 C 117.310 208.174,117.600 207.560,117.600 206.797 C 117.600 205.867,117.778 205.600,118.400 205.600 C 118.933 205.600,119.200 205.333,119.200 204.800 C 119.200 204.267,119.467 204.000,120.000 204.000 C 120.517 204.000,120.800 203.733,120.800 203.247 C 120.800 202.830,121.157 202.400,121.600 202.284 C 122.040 202.169,122.400 201.809,122.400 201.484 C 122.400 201.159,122.760 200.799,123.200 200.684 C 123.640 200.569,124.000 200.188,124.000 199.837 C 124.000 199.487,124.276 199.200,124.613 199.200 C 124.949 199.200,125.336 198.912,125.471 198.560 C 125.787 197.736,127.336 196.187,128.160 195.871 C 128.512 195.736,128.800 195.370,128.800 195.059 C 128.800 194.748,129.160 194.399,129.600 194.284 C 130.040 194.169,130.400 193.809,130.400 193.484 C 130.400 193.159,130.760 192.799,131.200 192.684 C 131.640 192.569,132.000 192.188,132.000 191.837 C 132.000 191.467,132.335 191.200,132.800 191.200 C 133.333 191.200,133.600 190.933,133.600 190.400 C 133.600 189.867,133.867 189.600,134.400 189.600 C 134.933 189.600,135.200 189.333,135.200 188.800 C 135.200 188.178,135.467 188.000,136.397 188.000 C 137.160 188.000,137.774 187.710,138.093 187.200 C 138.368 186.760,138.909 186.400,139.296 186.400 C 139.733 186.400,140.000 186.097,140.000 185.600 C 140.000 185.013,140.267 184.800,141.004 184.800 C 141.556 184.800,142.316 184.440,142.693 184.000 C 143.070 183.560,143.698 183.200,144.089 183.200 C 144.533 183.200,144.800 182.900,144.800 182.400 C 144.800 181.748,145.067 181.600,146.237 181.600 C 147.338 181.600,147.724 181.413,147.884 180.800 C 148.032 180.234,148.430 180.000,149.243 180.000 C 149.960 180.000,150.581 179.699,150.893 179.200 C 151.231 178.658,151.826 178.400,152.734 178.400 C 153.738 178.400,154.127 178.199,154.284 177.600 C 154.443 176.994,154.830 176.800,155.884 176.800 C 156.938 176.800,157.325 176.606,157.484 176.000 C 157.646 175.380,158.030 175.200,159.185 175.200 C 160.168 175.200,160.923 174.927,161.400 174.400 C 161.912 173.834,162.632 173.600,163.862 173.600 C 165.333 173.600,165.600 173.477,165.600 172.800 C 165.600 172.070,165.867 172.000,168.637 172.000 C 171.338 172.000,171.698 171.911,171.884 171.200 C 172.071 170.485,172.430 170.400,175.247 170.400 C 177.867 170.400,178.535 170.265,179.200 169.600 C 179.973 168.827,180.533 168.800,195.953 168.800 C 211.570 168.800,211.911 168.817,212.116 169.600 C 212.302 170.311,212.662 170.400,215.363 170.400 C 217.867 170.400,218.540 170.540,219.200 171.200 C 219.819 171.819,220.533 172.000,222.353 172.000 C 224.370 172.000,224.737 172.114,224.916 172.800 C 225.093 173.477,225.462 173.600,227.316 173.600 C 229.170 173.600,229.539 173.723,229.716 174.400 C 229.873 175.000,230.262 175.200,231.274 175.200 C 232.127 175.200,232.874 175.494,233.307 176.000 C 233.804 176.580,234.487 176.800,235.796 176.800 C 237.333 176.800,237.600 176.918,237.600 177.600 C 237.600 178.267,237.867 178.400,239.200 178.400 C 240.533 178.400,240.800 178.533,240.800 179.200 C 240.800 179.787,241.067 180.000,241.800 180.000 C 242.408 180.000,242.800 180.228,242.800 180.582 C 242.800 180.927,243.354 181.268,244.163 181.419 C 245.032 181.582,245.599 181.952,245.726 182.438 C 245.875 183.009,246.285 183.200,247.363 183.200 C 248.533 183.200,248.800 183.348,248.800 184.000 C 248.800 184.517,249.067 184.800,249.553 184.800 C 249.970 184.800,250.400 185.157,250.516 185.600 C 250.676 186.213,251.062 186.400,252.163 186.400 C 253.333 186.400,253.600 186.548,253.600 187.200 C 253.600 187.733,253.867 188.000,254.400 188.000 C 254.933 188.000,255.200 188.267,255.200 188.800 C 255.200 189.317,255.467 189.600,255.953 189.600 C 256.370 189.600,256.800 189.957,256.916 190.400 C 257.041 190.879,257.462 191.200,257.963 191.200 C 258.429 191.200,258.800 191.458,258.800 191.782 C 258.800 192.130,259.362 192.469,260.200 192.626 C 261.213 192.816,261.600 193.098,261.600 193.645 C 261.600 194.133,261.882 194.400,262.400 194.400 C 262.933 194.400,263.200 194.667,263.200 195.200 C 263.200 195.733,263.467 196.000,264.000 196.000 C 264.533 196.000,264.800 196.267,264.800 196.800 C 264.800 197.333,265.067 197.600,265.600 197.600 C 266.133 197.600,266.400 197.867,266.400 198.400 C 266.400 198.933,266.667 199.200,267.200 199.200 C 267.733 199.200,268.000 199.467,268.000 200.000 C 268.000 200.440,268.360 201.160,268.800 201.600 C 269.240 202.040,269.600 202.570,269.600 202.777 C 269.600 202.985,269.927 203.390,270.326 203.677 C 270.726 203.965,271.170 204.515,271.314 204.900 C 271.457 205.285,271.851 205.600,272.187 205.600 C 272.533 205.600,272.800 205.948,272.800 206.400 C 272.800 206.933,273.067 207.200,273.600 207.200 C 274.183 207.200,274.400 207.467,274.400 208.184 C 274.400 208.726,274.731 209.491,275.136 209.884 C 275.541 210.278,275.985 210.915,276.123 211.300 C 276.262 211.685,276.651 212.000,276.987 212.000 C 277.333 212.000,277.600 212.348,277.600 212.800 C 277.600 213.333,277.867 213.600,278.400 213.600 C 278.933 213.600,279.200 213.867,279.200 214.400 C 279.200 214.933,279.467 215.200,280.000 215.200 C 280.533 215.200,280.800 215.467,280.800 216.000 C 280.800 216.533,281.067 216.800,281.600 216.800 C 282.133 216.800,282.400 217.067,282.400 217.600 C 282.400 218.100,282.667 218.400,283.111 218.400 C 283.502 218.400,284.130 218.760,284.507 219.200 C 284.884 219.640,285.644 220.000,286.196 220.000 C 286.748 220.000,287.560 220.360,288.000 220.800 C 288.756 221.556,289.333 221.600,298.400 221.600 C 307.733 221.600,308.000 221.578,308.000 220.800 C 308.000 220.133,308.267 220.000,309.600 220.000 C 310.933 220.000,311.200 219.867,311.200 219.200 C 311.200 218.548,311.467 218.400,312.637 218.400 C 313.738 218.400,314.124 218.213,314.284 217.600 C 314.400 217.157,314.830 216.800,315.247 216.800 C 315.733 216.800,316.000 216.517,316.000 216.000 C 316.000 215.467,316.267 215.200,316.800 215.200 C 317.317 215.200,317.600 214.933,317.600 214.447 C 317.600 214.030,317.957 213.600,318.400 213.484 C 318.879 213.359,319.200 212.938,319.200 212.437 C 319.200 211.977,319.456 211.600,319.768 211.600 C 320.084 211.600,320.463 211.023,320.622 210.300 C 320.779 209.585,321.243 208.765,321.654 208.477 C 322.270 208.046,322.400 207.429,322.400 204.935 C 322.400 202.493,322.509 201.956,322.967 202.132 C 324.330 202.655,324.546 194.460,323.200 193.307 C 322.571 192.769,322.400 192.127,322.400 190.311 C 322.400 188.533,322.215 187.815,321.600 187.200 C 321.160 186.760,320.800 186.040,320.800 185.600 C 320.800 185.067,320.533 184.800,320.000 184.800 C 319.348 184.800,319.200 184.533,319.200 183.363 C 319.200 182.262,319.013 181.876,318.400 181.716 C 317.957 181.600,317.600 181.170,317.600 180.753 C 317.600 180.267,317.317 180.000,316.800 180.000 C 316.148 180.000,316.000 179.733,316.000 178.563 C 316.000 177.462,315.813 177.076,315.200 176.916 C 314.760 176.801,314.400 176.441,314.400 176.116 C 314.400 175.791,314.040 175.431,313.600 175.316 C 313.157 175.200,312.800 174.770,312.800 174.353 C 312.800 173.867,312.517 173.600,312.000 173.600 C 311.489 173.600,311.200 173.333,311.200 172.862 C 311.200 172.456,310.840 171.798,310.400 171.400 C 309.960 171.002,309.600 170.444,309.600 170.161 C 309.600 169.877,309.273 169.410,308.874 169.123 C 308.474 168.835,308.030 168.285,307.886 167.900 C 307.743 167.515,307.349 167.200,307.013 167.200 C 306.676 167.200,306.400 166.913,306.400 166.563 C 306.400 166.212,306.040 165.831,305.600 165.716 C 305.157 165.600,304.800 165.170,304.800 164.753 C 304.800 164.267,304.517 164.000,304.000 164.000 C 303.467 164.000,303.200 163.733,303.200 163.200 C 303.200 162.667,302.933 162.400,302.400 162.400 C 301.867 162.400,301.600 162.133,301.600 161.600 C 301.600 161.067,301.333 160.800,300.800 160.800 C 300.267 160.800,300.000 160.533,300.000 160.000 C 300.000 159.467,299.733 159.200,299.200 159.200 C 298.735 159.200,298.400 158.933,298.400 158.563 C 298.400 158.212,298.040 157.831,297.600 157.716 C 297.160 157.601,296.800 157.241,296.800 156.916 C 296.800 156.591,296.457 156.235,296.037 156.126 C 295.617 156.016,295.184 155.583,295.074 155.163 C 294.958 154.719,294.525 154.400,294.037 154.400 C 293.571 154.400,293.200 154.142,293.200 153.818 C 293.200 153.470,292.638 153.131,291.800 152.974 C 290.787 152.784,290.400 152.502,290.400 151.955 C 290.400 151.467,290.118 151.200,289.600 151.200 C 289.067 151.200,288.800 150.933,288.800 150.400 C 288.800 149.883,288.533 149.600,288.047 149.600 C 287.630 149.600,287.200 149.243,287.084 148.800 C 286.969 148.360,286.588 148.000,286.237 148.000 C 285.887 148.000,285.240 147.640,284.800 147.200 C 284.360 146.760,283.640 146.400,283.200 146.400 C 282.667 146.400,282.400 146.133,282.400 145.600 C 282.400 145.103,282.133 144.800,281.696 144.800 C 281.309 144.800,280.768 144.440,280.493 144.000 C 280.174 143.490,279.560 143.200,278.797 143.200 C 277.867 143.200,277.600 143.022,277.600 142.400 C 277.600 141.900,277.333 141.600,276.889 141.600 C 276.498 141.600,275.870 141.240,275.493 140.800 C 275.116 140.360,274.377 140.000,273.851 140.000 C 273.230 140.000,272.820 139.719,272.684 139.200 C 272.524 138.587,272.138 138.400,271.037 138.400 C 269.867 138.400,269.600 138.252,269.600 137.600 C 269.600 136.933,269.333 136.800,268.000 136.800 C 266.667 136.800,266.400 136.667,266.400 136.000 C 266.400 135.427,266.133 135.200,265.462 135.200 C 264.946 135.200,264.198 134.840,263.800 134.400 C 263.402 133.960,262.682 133.600,262.200 133.600 C 261.718 133.600,260.998 133.240,260.600 132.800 C 260.115 132.264,259.368 132.000,258.338 132.000 C 257.067 132.000,256.800 131.861,256.800 131.200 C 256.800 130.537,256.533 130.400,255.247 130.400 C 254.030 130.400,253.648 130.227,253.484 129.600 C 253.306 128.920,252.938 128.800,251.037 128.800 C 249.067 128.800,248.800 128.705,248.800 128.000 C 248.800 127.333,248.533 127.200,247.200 127.200 C 246.133 127.200,245.333 126.933,244.800 126.400 C 244.245 125.845,243.467 125.600,242.262 125.600 C 241.032 125.600,240.312 125.366,239.800 124.800 C 239.240 124.181,238.568 124.000,236.834 124.000 C 235.026 124.000,234.496 123.845,234.093 123.200 C 233.667 122.518,233.160 122.400,230.659 122.400 C 228.232 122.400,227.599 122.262,227.000 121.600 C 226.365 120.898,225.768 120.800,222.138 120.800 C 218.594 120.800,218.000 120.707,218.000 120.153 C 218.000 119.703,217.756 119.570,217.199 119.716 C 216.759 119.831,216.500 119.762,216.623 119.563 C 216.756 119.347,208.120 119.200,195.386 119.200 C 174.262 119.200,173.922 119.213,173.716 120.000 M177.900 201.076 C 177.515 201.176,177.200 201.515,177.200 201.829 C 177.200 202.269,176.558 202.400,174.396 202.400 C 172.087 202.400,171.471 202.541,170.907 203.200 C 170.380 203.816,169.727 204.000,168.074 204.000 C 166.262 204.000,165.892 204.125,165.716 204.800 C 165.552 205.427,165.170 205.600,163.953 205.600 C 162.667 205.600,162.400 205.737,162.400 206.400 C 162.400 207.061,162.133 207.200,160.862 207.200 C 159.832 207.200,159.085 207.464,158.600 208.000 C 158.202 208.440,157.482 208.800,157.000 208.800 C 156.518 208.800,155.798 209.160,155.400 209.600 C 155.002 210.040,154.254 210.400,153.738 210.400 C 153.067 210.400,152.800 210.627,152.800 211.200 C 152.800 211.852,152.533 212.000,151.363 212.000 C 150.262 212.000,149.876 212.187,149.716 212.800 C 149.600 213.243,149.170 213.600,148.753 213.600 C 148.267 213.600,148.000 213.883,148.000 214.400 C 148.000 215.052,147.733 215.200,146.563 215.200 C 145.462 215.200,145.076 215.387,144.916 216.000 C 144.800 216.443,144.370 216.800,143.953 216.800 C 143.467 216.800,143.200 217.083,143.200 217.600 C 143.200 218.133,142.933 218.400,142.400 218.400 C 141.867 218.400,141.600 218.667,141.600 219.200 C 141.600 219.733,141.333 220.000,140.800 220.000 C 140.267 220.000,140.000 220.267,140.000 220.800 C 140.000 221.333,139.733 221.600,139.200 221.600 C 138.667 221.600,138.400 221.867,138.400 222.400 C 138.400 222.933,138.133 223.200,137.600 223.200 C 137.067 223.200,136.800 223.467,136.800 224.000 C 136.800 224.533,136.533 224.800,136.000 224.800 C 135.467 224.800,135.200 225.067,135.200 225.600 C 135.200 226.133,134.933 226.400,134.400 226.400 C 133.867 226.400,133.600 226.667,133.600 227.200 C 133.600 227.733,133.333 228.000,132.800 228.000 C 132.267 228.000,132.000 228.267,132.000 228.800 C 132.000 229.333,131.733 229.600,131.200 229.600 C 130.683 229.600,130.400 229.867,130.400 230.353 C 130.400 230.770,130.043 231.200,129.600 231.316 C 128.987 231.476,128.800 231.862,128.800 232.963 C 128.800 234.133,128.652 234.400,128.000 234.400 C 127.483 234.400,127.200 234.667,127.200 235.153 C 127.200 235.570,126.843 236.000,126.400 236.116 C 125.787 236.276,125.600 236.662,125.600 237.763 C 125.600 238.933,125.452 239.200,124.800 239.200 C 124.227 239.200,124.000 239.467,124.000 240.138 C 124.000 240.654,123.640 241.402,123.200 241.800 C 122.760 242.198,122.400 242.946,122.400 243.462 C 122.400 243.994,122.160 244.400,121.847 244.400 C 121.216 244.400,120.813 245.600,120.805 247.500 C 120.801 248.532,120.635 248.800,120.000 248.800 C 119.337 248.800,119.200 249.067,119.200 250.353 C 119.200 251.570,119.027 251.952,118.400 252.116 C 117.726 252.292,117.600 252.662,117.600 254.466 C 117.600 256.174,117.438 256.709,116.800 257.107 C 116.128 257.527,116.000 258.040,116.000 260.307 C 116.000 262.574,115.872 263.088,115.200 263.507 C 114.446 263.978,114.400 264.440,114.400 271.557 C 114.400 278.770,114.364 279.116,113.600 279.316 C 113.011 279.470,112.800 279.862,112.800 280.800 C 112.800 281.738,113.011 282.130,113.600 282.284 C 114.364 282.484,114.400 282.830,114.400 290.043 C 114.400 297.160,114.446 297.622,115.200 298.093 C 115.882 298.519,116.000 299.026,116.000 301.534 C 116.000 304.138,116.091 304.499,116.800 304.684 C 117.477 304.861,117.600 305.230,117.600 307.084 C 117.600 308.938,117.723 309.307,118.400 309.484 C 119.027 309.648,119.200 310.030,119.200 311.247 C 119.200 312.533,119.337 312.800,120.000 312.800 C 120.680 312.800,120.800 313.067,120.800 314.584 C 120.800 315.812,121.035 316.592,121.553 317.084 C 121.968 317.478,122.432 318.385,122.585 319.100 C 122.741 319.826,123.114 320.400,123.432 320.400 C 123.771 320.400,124.000 320.803,124.000 321.400 C 124.000 322.133,124.213 322.400,124.800 322.400 C 125.452 322.400,125.600 322.667,125.600 323.837 C 125.600 324.938,125.787 325.324,126.400 325.484 C 126.843 325.600,127.200 326.030,127.200 326.447 C 127.200 326.933,127.483 327.200,128.000 327.200 C 128.652 327.200,128.800 327.467,128.800 328.637 C 128.800 329.738,128.987 330.124,129.600 330.284 C 130.043 330.400,130.400 330.830,130.400 331.247 C 130.400 331.733,130.683 332.000,131.200 332.000 C 131.733 332.000,132.000 332.267,132.000 332.800 C 132.000 333.333,132.267 333.600,132.800 333.600 C 133.333 333.600,133.600 333.867,133.600 334.400 C 133.600 334.933,133.867 335.200,134.400 335.200 C 134.933 335.200,135.200 335.467,135.200 336.000 C 135.200 336.533,135.467 336.800,136.000 336.800 C 136.533 336.800,136.800 337.067,136.800 337.600 C 136.800 338.133,137.067 338.400,137.600 338.400 C 138.133 338.400,138.400 338.667,138.400 339.200 C 138.400 339.733,138.667 340.000,139.200 340.000 C 139.733 340.000,140.000 340.267,140.000 340.800 C 140.000 341.333,140.267 341.600,140.800 341.600 C 141.333 341.600,141.600 341.867,141.600 342.400 C 141.600 342.933,141.867 343.200,142.400 343.200 C 142.933 343.200,143.200 343.467,143.200 344.000 C 143.200 344.517,143.467 344.800,143.953 344.800 C 144.370 344.800,144.800 345.157,144.916 345.600 C 145.076 346.213,145.462 346.400,146.563 346.400 C 147.733 346.400,148.000 346.548,148.000 347.200 C 148.000 347.717,148.267 348.000,148.753 348.000 C 149.170 348.000,149.600 348.357,149.716 348.800 C 149.876 349.413,150.262 349.600,151.363 349.600 C 152.533 349.600,152.800 349.748,152.800 350.400 C 152.800 350.987,153.067 351.200,153.800 351.200 C 154.419 351.200,154.800 351.427,154.800 351.795 C 154.800 352.180,155.365 352.481,156.400 352.646 C 157.281 352.787,158.000 353.128,158.000 353.404 C 158.000 353.988,159.249 354.387,161.100 354.395 C 162.132 354.399,162.400 354.565,162.400 355.200 C 162.400 355.863,162.667 356.000,163.953 356.000 C 165.170 356.000,165.552 356.173,165.716 356.800 C 165.892 357.474,166.262 357.600,168.066 357.600 C 169.774 357.600,170.309 357.762,170.707 358.400 C 171.127 359.072,171.640 359.200,173.907 359.200 C 176.174 359.200,176.688 359.328,177.107 360.000 C 177.594 360.779,178.040 360.800,194.400 360.800 C 210.760 360.800,211.206 360.779,211.693 360.000 C 212.119 359.318,212.626 359.200,215.134 359.200 C 217.738 359.200,218.099 359.109,218.284 358.400 C 218.461 357.723,218.830 357.600,220.684 357.600 C 222.538 357.600,222.907 357.477,223.084 356.800 C 223.248 356.173,223.630 356.000,224.847 356.000 C 226.133 356.000,226.400 355.863,226.400 355.200 C 226.400 354.565,226.668 354.399,227.700 354.395 C 229.600 354.387,230.800 353.984,230.800 353.353 C 230.800 353.030,231.215 352.800,231.800 352.800 C 232.350 352.800,233.160 352.440,233.600 352.000 C 234.040 351.560,234.760 351.200,235.200 351.200 C 235.733 351.200,236.000 350.933,236.000 350.400 C 236.000 349.748,236.267 349.600,237.437 349.600 C 238.538 349.600,238.924 349.413,239.084 348.800 C 239.200 348.357,239.630 348.000,240.047 348.000 C 240.533 348.000,240.800 347.717,240.800 347.200 C 240.800 346.548,241.067 346.400,242.237 346.400 C 243.338 346.400,243.724 346.213,243.884 345.600 C 244.000 345.157,244.430 344.800,244.847 344.800 C 245.333 344.800,245.600 344.517,245.600 344.000 C 245.600 343.467,245.867 343.200,246.400 343.200 C 246.933 343.200,247.200 342.933,247.200 342.400 C 247.200 341.867,247.467 341.600,248.000 341.600 C 248.533 341.600,248.800 341.333,248.800 340.800 C 248.800 340.267,249.067 340.000,249.600 340.000 C 250.133 340.000,250.400 339.733,250.400 339.200 C 250.400 338.667,250.667 338.400,251.200 338.400 C 251.733 338.400,252.000 338.133,252.000 337.600 C 252.000 337.067,252.267 336.800,252.800 336.800 C 253.333 336.800,253.600 336.533,253.600 336.000 C 253.600 335.467,253.867 335.200,254.400 335.200 C 254.933 335.200,255.200 334.933,255.200 334.400 C 255.200 333.867,255.467 333.600,256.000 333.600 C 256.533 333.600,256.800 333.333,256.800 332.800 C 256.800 332.267,257.067 332.000,257.600 332.000 C 258.117 332.000,258.400 331.733,258.400 331.247 C 258.400 330.830,258.757 330.400,259.200 330.284 C 259.813 330.124,260.000 329.738,260.000 328.637 C 260.000 327.467,260.148 327.200,260.800 327.200 C 261.317 327.200,261.600 326.933,261.600 326.447 C 261.600 326.030,261.957 325.600,262.400 325.484 C 263.013 325.324,263.200 324.938,263.200 323.837 C 263.200 322.667,263.348 322.400,264.000 322.400 C 264.573 322.400,264.800 322.133,264.800 321.462 C 264.800 320.946,265.160 320.198,265.600 319.800 C 266.040 319.402,266.400 318.682,266.400 318.200 C 266.400 317.718,266.760 316.998,267.200 316.600 C 267.736 316.115,268.000 315.368,268.000 314.338 C 268.000 313.067,268.139 312.800,268.800 312.800 C 269.463 312.800,269.600 312.533,269.600 311.247 C 269.600 310.030,269.773 309.648,270.400 309.484 C 271.075 309.308,271.200 308.938,271.200 307.126 C 271.200 305.473,271.384 304.820,272.000 304.293 C 272.659 303.729,272.800 303.113,272.800 300.804 C 272.800 298.683,272.935 298.000,273.353 298.000 C 274.778 298.000,275.015 265.415,273.600 264.000 C 272.964 263.364,272.800 262.667,272.800 260.596 C 272.800 258.487,272.648 257.862,272.000 257.307 C 271.408 256.800,271.200 256.127,271.200 254.714 C 271.200 253.240,271.018 252.693,270.400 252.307 C 269.830 251.951,269.600 251.374,269.600 250.304 C 269.600 249.067,269.458 248.800,268.800 248.800 C 268.139 248.800,268.000 248.533,268.000 247.262 C 268.000 246.232,267.736 245.485,267.200 245.000 C 266.760 244.602,266.400 243.854,266.400 243.338 C 266.400 242.667,266.173 242.400,265.600 242.400 C 264.933 242.400,264.800 242.133,264.800 240.800 C 264.800 239.467,264.667 239.200,264.000 239.200 C 263.348 239.200,263.200 238.933,263.200 237.763 C 263.200 236.662,263.013 236.276,262.400 236.116 C 261.957 236.000,261.600 235.570,261.600 235.153 C 261.600 234.667,261.317 234.400,260.800 234.400 C 260.181 234.400,260.000 234.133,260.000 233.223 C 260.000 232.544,259.693 231.824,259.274 231.523 C 258.874 231.235,258.430 230.685,258.286 230.300 C 258.143 229.915,257.749 229.600,257.413 229.600 C 257.067 229.600,256.800 229.252,256.800 228.800 C 256.800 228.267,256.533 228.000,256.000 228.000 C 255.467 228.000,255.200 227.733,255.200 227.200 C 255.200 226.667,254.933 226.400,254.400 226.400 C 253.867 226.400,253.600 226.133,253.600 225.600 C 253.600 225.067,253.333 224.800,252.800 224.800 C 252.267 224.800,252.000 224.533,252.000 224.000 C 252.000 223.467,251.733 223.200,251.200 223.200 C 250.667 223.200,250.400 222.933,250.400 222.400 C 250.400 221.867,250.133 221.600,249.600 221.600 C 249.067 221.600,248.800 221.333,248.800 220.800 C 248.800 220.267,248.533 220.000,248.000 220.000 C 247.467 220.000,247.200 219.733,247.200 219.200 C 247.200 218.667,246.933 218.400,246.400 218.400 C 245.948 218.400,245.600 218.133,245.600 217.787 C 245.600 217.451,245.285 217.057,244.900 216.914 C 244.515 216.770,243.965 216.326,243.677 215.926 C 243.376 215.507,242.656 215.200,241.977 215.200 C 241.067 215.200,240.800 215.019,240.800 214.400 C 240.800 213.883,240.533 213.600,240.047 213.600 C 239.630 213.600,239.200 213.243,239.084 212.800 C 238.924 212.187,238.538 212.000,237.437 212.000 C 236.267 212.000,236.000 211.852,236.000 211.200 C 236.000 210.533,235.733 210.400,234.400 210.400 C 233.067 210.400,232.800 210.267,232.800 209.600 C 232.800 209.027,232.533 208.800,231.862 208.800 C 231.346 208.800,230.598 208.440,230.200 208.000 C 229.715 207.464,228.968 207.200,227.938 207.200 C 226.667 207.200,226.400 207.061,226.400 206.400 C 226.400 205.737,226.133 205.600,224.847 205.600 C 223.630 205.600,223.248 205.427,223.084 204.800 C 222.908 204.126,222.538 204.000,220.734 204.000 C 219.026 204.000,218.491 203.838,218.093 203.200 C 217.665 202.516,217.160 202.400,214.597 202.400 C 212.312 202.400,211.600 202.269,211.600 201.847 C 211.600 201.542,211.195 201.185,210.700 201.052 C 209.669 200.776,178.963 200.798,177.900 201.076 M199.532 239.631 C 201.659 239.868,204.436 240.408,205.702 240.831 C 206.967 241.254,208.197 241.600,208.433 241.600 C 210.694 241.600,219.485 247.289,223.713 251.488 C 227.917 255.663,233.600 264.521,233.600 266.897 C 233.600 267.189,233.938 268.411,234.352 269.614 C 236.248 275.128,236.255 286.418,234.365 292.102 C 233.944 293.367,233.600 294.597,233.600 294.833 C 233.600 296.839,228.063 305.677,224.534 309.304 C 198.161 336.414,152.828 318.393,152.828 280.800 C 152.828 255.666,174.219 236.810,199.532 239.631 " stroke="none" fill="#8cc43c" fill-rule="evenodd"></path></g></svg>