<?xml version="1.0" encoding="UTF-8"?>
<svg version="1.1" xmlns="http://www.w3.org/2000/svg" width="48" height="448" viewBox="0, 0, 250,250">
<path d="M0,0 L36,0 L61,5 L82,13 L97,21 L111,31 L123,42 L132,51 L142,65 L143,67 L143,78 L139,84 L134,87 L122,87 L116,83 L107,71 L98,61 L84,50 L68,41 L49,34 L34,31 L23,30 L13,30 L-4,32 L-19,36 L-34,42 L-48,50 L-58,58 L-68,67 L-81,84 L-86,87 L-98,87 L-104,83 L-107,78 L-107,67 L-100,56 L-86,41 L-79,34 L-64,23 L-48,14 L-28,6 L-7,1 Z " fill="#8CC63F" transform="translate(107,25)"/>
<path d="M0,0 L21,0 L35,5 L44,12 L51,19 L56,27 L60,39 L60,60 L55,74 L48,83 L41,90 L33,95 L21,99 L0,99 L-12,95 L-22,88 L-30,80 L-36,70 L-39,60 L-40,49 L-38,35 L-34,25 L-27,16 L-20,9 L-12,4 Z " fill="#8CC63F" transform="translate(111,126)"/>
<path d="M0,0 L27,0 L44,4 L58,10 L70,18 L82,29 L91,40 L93,46 L92,55 L87,61 L79,64 L69,62 L59,51 L54,46 L47,40 L32,33 L24,31 L3,31 L-11,35 L-22,41 L-32,50 L-41,61 L-50,64 L-59,62 L-64,58 L-66,54 L-66,43 L-60,34 L-50,23 L-38,14 L-23,6 L-6,1 Z " fill="#8CC63F" transform="translate(109,75)"/>
<path d="M0,0 L14,0 L23,4 L31,13 L33,18 L33,32 L29,41 L20,49 L14,51 L1,51 L-6,48 L-14,41 L-18,32 L-18,19 L-15,12 L-8,4 Z " fill="#F0F0F0" transform="translate(114,150)"/>
</svg>
