<?xml version="1.0" encoding="UTF-8"?>
<svg version="1.1" xmlns="http://www.w3.org/2000/svg" width="48" height="448" viewBox="0, 0, 512,512">
<path d="M0,0 L32,0 L53,2 L76,6 L100,13 L116,19 L137,29 L155,40 L174,54 L185,64 L193,71 L205,83 L214,94 L223,105 L235,123 L244,139 L253,158 L262,185 L267,207 L270,231 L270,278 L267,301 L262,324 L254,348 L246,366 L237,383 L227,398 L217,411 L206,424 L182,448 L171,457 L156,468 L143,476 L129,484 L106,494 L80,502 L60,506 L45,508 L32,509 L0,509 L-21,507 L-43,503 L-65,497 L-86,489 L-102,481 L-120,471 L-138,458 L-152,446 L-162,437 L-174,425 L-183,414 L-194,400 L-205,383 L-217,360 L-225,340 L-231,320 L-236,296 L-238,278 L-238,231 L-235,207 L-229,181 L-221,158 L-212,138 L-199,116 L-186,98 L-173,83 L-152,62 L-141,53 L-123,40 L-103,28 L-82,18 L-52,8 L-28,3 L-13,1 Z " fill="#5C85DD" transform="translate(239,1)"/>
<path d="M0,0 L23,0 L30,1 L47,2 L65,6 L89,14 L106,22 L118,30 L120,34 L94,60 L79,52 L50,42 L34,40 L-3,40 L-16,42 L-33,46 L-51,53 L-67,62 L-81,72 L-93,83 L-103,94 L-115,112 L-126,133 L-132,150 L-135,164 L-137,180 L-137,201 L-134,223 L-130,237 L-124,252 L-113,273 L-101,289 L-92,299 L-81,309 L-68,318 L-52,327 L-37,334 L-21,339 L-5,342 L25,342 L51,339 L79,328 L90,323 L94,324 L114,344 L118,349 L117,352 L99,362 L69,374 L53,378 L28,382 L2,382 L-22,379 L-47,372 L-72,361 L-89,351 L-104,340 L-118,328 L-125,321 L-134,310 L-143,298 L-151,285 L-159,269 L-166,252 L-171,237 L-175,216 L-176,202 L-176,176 L-174,158 L-168,133 L-160,113 L-149,92 L-138,76 L-129,65 L-117,52 L-109,45 L-96,35 L-77,23 L-54,12 L-39,7 L-17,2 Z " fill="#FDFEFE" transform="translate(241,65)"/>
<path d="M0,0 L9,0 L33,14 L61,30 L87,45 L113,60 L122,66 L126,71 L127,74 L127,81 L124,87 L118,92 L90,108 L66,122 L38,138 L14,152 L7,155 L0,155 L-8,150 L-11,144 L-11,12 L-8,6 L-2,1 Z " fill="#FEFEFE" transform="translate(219,178)"/>
<path d="M0,0 L4,2 L15,14 L27,31 L37,49 L48,76 L53,94 L55,110 L55,158 L53,173 L49,187 L42,206 L30,231 L18,248 L10,258 L0,269 L-8,263 L-28,243 L-22,236 L-12,223 L-2,207 L6,191 L11,177 L15,158 L16,150 L16,112 L14,99 L10,84 L2,65 L-4,54 L-14,40 L-26,28 L-24,24 Z " fill="#FDFEFE" transform="translate(391,122)"/>
</svg>
