<svg id="svg" version="1.1" xmlns="http://www.w3.org/2000/svg" xmlns:xlink="http://www.w3.org/1999/xlink" width="48"
     height="48" viewBox="0, 0, 400,400">
    <g id="svgg">
        <path id="path0"
              d="M188.600 51.412 C 182.236 51.908,181.152 52.030,175.800 52.853 C 165.543 54.430,154.382 57.431,144.800 61.190 C 140.761 62.775,130.699 67.652,127.400 69.623 C 126.300 70.280,125.130 70.934,124.800 71.076 C 121.689 72.410,106.871 83.065,101.600 87.758 C 61.884 123.119,43.979 174.353,53.148 226.400 C 54.700 235.214,58.691 248.511,61.941 255.700 C 62.413 256.745,63.175 258.455,63.634 259.500 C 73.650 282.316,90.716 304.027,109.831 318.271 C 117.934 324.309,123.638 327.833,134.200 333.329 C 159.132 346.302,192.053 352.072,216.800 347.805 C 219.044 347.418,222.386 346.865,225.400 346.383 C 236.050 344.681,240.278 343.472,252.200 338.724 C 264.684 333.752,276.130 328.048,280.000 324.870 L 281.000 324.049 278.386 321.324 C 276.948 319.826,273.781 316.530,271.348 314.000 C 268.915 311.470,265.520 307.915,263.805 306.100 C 260.075 302.155,261.036 302.221,254.200 305.438 C 245.474 309.544,231.857 314.915,227.600 315.930 C 216.627 318.546,194.412 319.879,185.400 318.462 C 175.191 316.857,171.907 316.119,164.794 313.834 C 159.722 312.205,158.646 311.778,152.000 308.757 C 138.921 302.811,128.255 295.701,116.661 285.200 C 112.520 281.449,103.488 270.079,99.800 263.974 C 98.700 262.154,97.300 259.839,96.690 258.832 C 95.693 257.187,91.210 248.196,89.428 244.269 C 87.468 239.951,84.319 229.973,83.219 224.600 C 79.416 206.018,79.665 189.965,84.046 171.300 C 85.009 167.195,87.263 160.315,88.992 156.200 C 102.055 125.107,123.712 102.522,152.014 90.479 C 158.496 87.721,163.036 86.178,170.000 84.366 C 173.239 83.524,179.505 82.373,185.400 81.537 C 192.514 80.528,216.390 81.099,223.000 82.436 C 228.890 83.627,234.799 85.257,237.400 86.406 C 237.840 86.601,239.010 87.027,240.000 87.353 C 247.580 89.854,252.686 92.102,257.881 95.227 C 259.685 96.312,261.334 97.200,261.545 97.200 C 262.441 97.200,282.375 76.252,281.958 75.749 C 280.735 74.276,270.373 67.799,265.600 65.524 C 248.999 57.612,232.247 53.116,215.200 51.997 C 211.570 51.759,206.710 51.391,204.400 51.181 C 199.374 50.722,197.011 50.757,188.600 51.412 M295.260 105.740 L 284.726 116.280 288.401 119.840 C 302.792 133.782,313.176 153.804,317.526 176.000 C 318.873 182.873,319.432 205.103,318.446 212.600 C 316.194 229.737,312.117 242.979,305.271 255.400 C 300.421 264.199,292.254 275.631,286.562 281.589 L 283.623 284.665 291.711 292.661 C 296.160 297.059,300.980 301.765,302.422 303.118 L 305.045 305.578 307.440 303.089 C 313.618 296.669,321.806 286.179,326.400 278.800 C 327.564 276.930,328.912 274.770,329.396 274.000 C 330.793 271.775,337.600 257.682,337.600 257.014 C 337.600 256.907,338.116 255.691,338.747 254.310 C 342.338 246.452,346.172 233.190,347.162 225.200 C 347.394 223.330,347.812 220.000,348.092 217.800 C 350.420 199.475,347.964 171.481,342.619 155.400 C 341.424 151.805,338.122 143.252,336.519 139.600 C 336.182 138.830,335.630 137.570,335.293 136.800 C 331.505 128.135,325.925 118.535,320.335 111.066 C 315.442 104.528,307.159 95.200,306.246 95.200 C 305.998 95.200,301.054 99.943,295.260 105.740 M169.377 140.347 C 166.483 141.716,164.334 144.061,163.203 147.083 C 162.414 149.191,162.400 150.142,162.400 200.058 L 162.400 250.886 163.611 253.423 C 165.579 257.546,169.533 260.000,174.211 260.000 C 177.548 260.000,178.715 259.455,192.200 251.601 C 192.860 251.217,199.880 247.167,207.800 242.601 C 215.720 238.036,222.740 233.986,223.400 233.602 C 231.000 229.179,248.294 219.224,250.000 218.290 C 251.210 217.627,252.380 216.950,252.600 216.785 C 252.820 216.620,253.630 216.131,254.400 215.697 C 267.035 208.583,268.816 206.963,269.991 201.513 C 271.314 195.374,268.500 191.616,258.200 185.767 C 257.760 185.517,255.240 184.054,252.600 182.516 C 246.744 179.104,223.881 165.875,220.600 164.000 C 218.460 162.777,217.284 162.097,207.800 156.598 C 198.961 151.473,197.584 150.676,195.000 149.200 C 194.230 148.760,193.015 148.062,192.300 147.648 C 175.772 138.089,174.803 137.780,169.377 140.347 "
              stroke="none" fill="#fbfbfb" fill-rule="evenodd"></path>
        <path id="path1"
              d="M186.400 0.800 C 186.400 1.044,184.541 1.200,181.624 1.200 C 178.871 1.200,176.742 1.369,176.600 1.600 C 176.464 1.820,174.923 2.000,173.176 2.000 C 171.325 2.000,170.000 2.167,170.000 2.400 C 170.000 2.629,168.800 2.800,167.200 2.800 C 165.600 2.800,164.400 2.971,164.400 3.200 C 164.400 3.420,163.410 3.600,162.200 3.600 C 160.990 3.600,160.000 3.780,160.000 4.000 C 160.000 4.220,159.100 4.400,158.000 4.400 C 156.900 4.400,156.000 4.580,156.000 4.800 C 156.000 5.020,155.291 5.200,154.424 5.200 C 153.557 5.200,152.736 5.380,152.600 5.600 C 152.464 5.820,151.553 6.000,150.576 6.000 C 149.599 6.000,148.800 6.180,148.800 6.400 C 148.800 6.620,148.260 6.800,147.600 6.800 C 146.940 6.800,146.400 6.980,146.400 7.200 C 146.400 7.420,145.680 7.600,144.800 7.600 C 143.920 7.600,143.200 7.757,143.200 7.948 C 143.200 8.140,142.125 8.418,140.812 8.567 C 139.499 8.715,138.318 9.009,138.189 9.218 C 138.059 9.428,137.423 9.600,136.776 9.600 C 136.129 9.600,135.600 9.780,135.600 10.000 C 135.600 10.220,135.161 10.400,134.624 10.400 C 134.087 10.400,133.536 10.580,133.400 10.800 C 133.264 11.020,132.724 11.200,132.200 11.200 C 131.676 11.200,131.136 11.380,131.000 11.600 C 130.864 11.820,130.324 12.000,129.800 12.000 C 129.276 12.000,128.736 12.180,128.600 12.400 C 128.464 12.620,128.003 12.800,127.576 12.800 C 127.149 12.800,126.800 12.980,126.800 13.200 C 126.800 13.420,126.350 13.600,125.800 13.600 C 125.250 13.600,124.800 13.780,124.800 14.000 C 124.800 14.220,124.440 14.400,124.000 14.400 C 123.560 14.400,123.200 14.580,123.200 14.800 C 123.200 15.020,122.660 15.200,122.000 15.200 C 121.340 15.200,120.800 15.380,120.800 15.600 C 120.800 15.820,120.440 16.000,120.000 16.000 C 119.560 16.000,119.200 16.180,119.200 16.400 C 119.200 16.620,118.844 16.800,118.410 16.800 C 117.975 16.800,117.030 17.159,116.310 17.599 C 115.589 18.038,114.685 18.398,114.300 18.399 C 113.915 18.399,113.600 18.580,113.600 18.800 C 113.600 19.020,113.240 19.200,112.800 19.200 C 112.360 19.200,112.000 19.346,112.000 19.525 C 112.000 19.704,111.370 20.098,110.600 20.400 C 109.830 20.702,109.200 21.096,109.200 21.275 C 109.200 21.454,108.840 21.600,108.400 21.600 C 107.960 21.600,107.600 21.780,107.600 22.000 C 107.600 22.220,107.240 22.400,106.800 22.400 C 106.360 22.400,106.000 22.580,106.000 22.800 C 106.000 23.020,105.680 23.200,105.288 23.200 C 104.897 23.200,104.317 23.560,104.000 24.000 C 103.683 24.440,103.103 24.800,102.712 24.800 C 102.320 24.800,102.000 25.010,102.000 25.267 C 102.000 25.523,101.888 25.621,101.750 25.484 C 101.513 25.247,98.423 26.627,98.000 27.159 C 97.890 27.298,96.945 27.842,95.900 28.368 C 94.855 28.895,94.000 29.477,94.000 29.663 C 94.000 29.848,93.770 30.000,93.488 30.000 C 93.207 30.000,92.717 30.360,92.400 30.800 C 92.083 31.240,91.543 31.600,91.200 31.600 C 90.857 31.600,90.317 31.960,90.000 32.400 C 89.683 32.840,89.143 33.200,88.800 33.200 C 88.457 33.200,87.917 33.560,87.600 34.000 C 87.283 34.440,86.743 34.800,86.400 34.800 C 86.057 34.800,85.517 35.160,85.200 35.600 C 84.883 36.040,84.420 36.400,84.171 36.400 C 83.922 36.400,83.154 36.940,82.463 37.600 C 81.772 38.260,80.925 38.800,80.580 38.800 C 80.235 38.800,80.064 38.980,80.200 39.200 C 80.336 39.420,80.255 39.600,80.020 39.600 C 79.785 39.600,79.028 40.140,78.337 40.800 C 77.646 41.460,76.947 42.000,76.783 42.000 C 76.619 42.000,75.905 42.518,75.196 43.151 C 73.174 44.957,72.800 45.247,72.800 45.008 C 72.800 44.886,71.627 45.959,70.193 47.393 C 68.759 48.827,67.413 50.000,67.202 50.000 C 66.687 50.000,49.600 67.081,49.600 67.595 C 49.600 67.818,49.420 68.000,49.200 68.000 C 48.980 68.000,48.800 68.179,48.800 68.397 C 48.800 68.616,47.720 69.892,46.400 71.232 C 45.080 72.573,44.000 73.831,44.000 74.028 C 44.000 74.224,43.370 75.034,42.600 75.827 C 41.830 76.620,41.200 77.451,41.200 77.674 C 41.200 77.897,40.660 78.583,40.000 79.200 C 39.340 79.817,38.800 80.519,38.800 80.760 C 38.800 81.002,38.620 81.200,38.400 81.200 C 38.180 81.200,38.000 81.430,38.000 81.712 C 38.000 81.993,37.640 82.483,37.200 82.800 C 36.760 83.117,36.400 83.609,36.400 83.892 C 36.400 84.175,35.860 84.972,35.200 85.663 C 34.540 86.354,34.000 87.122,34.000 87.371 C 34.000 87.620,33.640 88.083,33.200 88.400 C 32.760 88.717,32.400 89.257,32.400 89.600 C 32.400 89.943,32.040 90.483,31.600 90.800 C 31.160 91.117,30.800 91.529,30.800 91.716 C 30.800 91.903,30.260 92.841,29.600 93.800 C 28.940 94.759,28.400 95.737,28.400 95.972 C 28.400 96.207,28.220 96.400,28.000 96.400 C 27.780 96.400,27.600 96.670,27.600 97.000 C 27.600 97.330,27.465 97.602,27.300 97.605 C 27.135 97.608,26.460 98.773,25.800 100.195 C 25.140 101.616,24.465 102.784,24.300 102.790 C 24.135 102.795,24.000 103.160,24.000 103.600 C 24.000 104.040,23.820 104.400,23.600 104.400 C 23.380 104.400,23.200 104.760,23.200 105.200 C 23.200 105.640,23.020 106.000,22.800 106.000 C 22.580 106.000,22.400 106.360,22.400 106.800 C 22.400 107.240,22.220 107.600,22.000 107.600 C 21.780 107.600,21.600 107.960,21.600 108.400 C 21.600 108.840,21.420 109.200,21.200 109.200 C 20.980 109.200,20.800 109.470,20.800 109.800 C 20.800 110.130,20.620 110.400,20.400 110.400 C 20.180 110.400,20.000 110.760,20.000 111.200 C 20.000 111.640,19.820 112.000,19.600 112.000 C 19.380 112.000,19.200 112.360,19.200 112.800 C 19.200 113.240,19.020 113.600,18.800 113.600 C 18.580 113.600,18.400 113.960,18.400 114.400 C 18.400 114.840,18.220 115.200,18.000 115.200 C 17.780 115.200,17.600 115.560,17.600 116.000 C 17.600 116.440,17.420 116.800,17.200 116.800 C 16.980 116.800,16.800 117.160,16.800 117.600 C 16.800 118.040,16.620 118.400,16.400 118.400 C 16.180 118.400,16.000 118.749,16.000 119.176 C 16.000 119.603,15.820 120.064,15.600 120.200 C 15.380 120.336,15.200 120.887,15.200 121.424 C 15.200 121.961,15.020 122.400,14.800 122.400 C 14.580 122.400,14.400 122.760,14.400 123.200 C 14.400 123.640,14.220 124.000,14.000 124.000 C 13.780 124.000,13.600 124.439,13.600 124.976 C 13.600 125.513,13.420 126.064,13.200 126.200 C 12.980 126.336,12.800 126.797,12.800 127.224 C 12.800 127.651,12.620 128.000,12.400 128.000 C 12.180 128.000,12.000 128.273,12.000 128.606 C 12.000 129.576,11.034 132.400,10.703 132.400 C 10.536 132.400,10.397 132.805,10.394 133.300 C 10.388 134.196,9.640 136.617,9.121 137.423 C 8.971 137.656,8.723 138.785,8.571 139.932 C 8.419 141.079,8.138 142.115,7.947 142.233 C 7.756 142.351,7.600 142.977,7.600 143.624 C 7.600 144.271,7.420 144.800,7.200 144.800 C 6.980 144.800,6.800 145.520,6.800 146.400 C 6.800 147.280,6.620 148.000,6.400 148.000 C 6.180 148.000,6.000 148.720,6.000 149.600 C 6.000 150.480,5.820 151.200,5.600 151.200 C 5.380 151.200,5.200 151.920,5.200 152.800 C 5.200 153.680,5.020 154.400,4.800 154.400 C 4.580 154.400,4.400 155.300,4.400 156.400 C 4.400 157.500,4.220 158.400,4.000 158.400 C 3.780 158.400,3.600 159.300,3.600 160.400 C 3.600 161.500,3.420 162.400,3.200 162.400 C 2.974 162.400,2.800 163.533,2.800 165.000 C 2.800 166.467,2.626 167.600,2.400 167.600 C 2.172 167.600,2.000 168.792,2.000 170.376 C 2.000 171.903,1.820 173.264,1.600 173.400 C 1.380 173.536,1.200 175.311,1.200 177.344 C 1.200 179.377,1.016 181.224,0.792 181.448 C -0.047 182.287,0.756 224.892,1.627 225.780 C 1.832 225.989,2.000 227.384,2.000 228.880 C 2.000 230.427,2.173 231.600,2.400 231.600 C 2.622 231.600,2.800 232.667,2.800 234.000 C 2.800 235.333,2.978 236.400,3.200 236.400 C 3.420 236.400,3.600 237.390,3.600 238.600 C 3.600 239.810,3.780 240.800,4.000 240.800 C 4.220 240.800,4.400 241.700,4.400 242.800 C 4.400 243.900,4.580 244.800,4.800 244.800 C 5.020 244.800,5.200 245.520,5.200 246.400 C 5.200 247.280,5.380 248.000,5.600 248.000 C 5.820 248.000,6.000 248.720,6.000 249.600 C 6.000 250.480,6.180 251.200,6.400 251.200 C 6.620 251.200,6.800 251.920,6.800 252.800 C 6.800 253.680,6.980 254.400,7.200 254.400 C 7.420 254.400,7.600 255.030,7.600 255.800 C 7.600 256.570,7.759 257.200,7.954 257.200 C 8.149 257.200,8.431 258.187,8.582 259.394 C 8.733 260.600,9.023 261.691,9.228 261.817 C 9.433 261.944,9.600 262.451,9.600 262.944 C 9.600 263.437,9.749 264.011,9.930 264.220 C 10.112 264.429,10.493 265.410,10.776 266.400 C 11.314 268.281,11.850 269.721,12.447 270.895 C 12.641 271.277,12.800 271.862,12.800 272.195 C 12.800 272.528,12.980 272.800,13.200 272.800 C 13.420 272.800,13.600 273.239,13.600 273.776 C 13.600 274.313,13.780 274.864,14.000 275.000 C 14.220 275.136,14.400 275.597,14.400 276.024 C 14.400 276.451,14.580 276.800,14.800 276.800 C 15.020 276.800,15.200 277.160,15.200 277.600 C 15.200 278.040,15.380 278.400,15.600 278.400 C 15.820 278.400,16.000 278.940,16.000 279.600 C 16.000 280.260,16.180 280.800,16.400 280.800 C 16.620 280.800,16.800 281.160,16.800 281.600 C 16.800 282.040,16.980 282.400,17.200 282.400 C 17.420 282.400,17.600 282.760,17.600 283.200 C 17.600 283.640,17.780 284.000,18.000 284.000 C 18.220 284.000,18.400 284.360,18.400 284.800 C 18.400 285.240,18.580 285.600,18.800 285.600 C 19.020 285.600,19.200 285.960,19.200 286.400 C 19.200 286.840,19.380 287.200,19.600 287.200 C 19.820 287.200,20.000 287.560,20.000 288.000 C 20.000 288.440,20.180 288.800,20.400 288.800 C 20.620 288.800,20.800 289.160,20.800 289.600 C 20.800 290.040,20.980 290.400,21.200 290.400 C 21.420 290.400,21.600 290.670,21.600 291.000 C 21.600 291.330,21.780 291.600,22.000 291.600 C 22.220 291.600,22.400 291.960,22.400 292.400 C 22.400 292.840,22.580 293.200,22.800 293.200 C 23.020 293.200,23.200 293.483,23.200 293.829 C 23.200 294.174,23.472 294.729,23.804 295.061 C 24.136 295.393,24.305 295.830,24.180 296.032 C 24.055 296.235,24.126 296.400,24.339 296.400 C 24.551 296.400,25.223 297.480,25.832 298.800 C 26.442 300.120,27.089 301.200,27.270 301.200 C 27.452 301.200,27.600 301.560,27.600 302.000 C 27.600 302.440,27.780 302.800,28.000 302.800 C 28.220 302.800,28.400 303.036,28.400 303.325 C 28.400 303.613,28.760 304.236,29.200 304.708 C 29.640 305.180,30.000 305.726,30.000 305.921 C 30.000 306.116,30.360 306.602,30.800 307.000 C 31.240 307.398,31.600 307.926,31.600 308.174 C 31.600 308.421,31.960 308.883,32.400 309.200 C 32.840 309.517,33.200 310.057,33.200 310.400 C 33.200 310.743,33.560 311.283,34.000 311.600 C 34.440 311.917,34.800 312.425,34.800 312.728 C 34.800 313.031,35.340 313.783,36.000 314.400 C 36.660 315.017,37.200 315.737,37.200 316.000 C 37.200 316.263,37.740 316.983,38.400 317.600 C 39.060 318.217,39.600 318.943,39.600 319.214 C 39.600 319.484,39.924 319.997,40.321 320.353 C 40.717 320.709,41.571 321.720,42.219 322.600 C 42.867 323.480,43.893 324.677,44.499 325.260 C 45.104 325.844,45.600 326.519,45.600 326.760 C 45.600 327.002,45.780 327.200,46.000 327.200 C 46.220 327.200,46.400 327.390,46.400 327.622 C 46.400 327.854,47.480 329.104,48.800 330.400 C 50.120 331.696,51.200 332.890,51.200 333.055 C 51.200 333.219,51.920 334.025,52.800 334.845 C 53.680 335.666,54.400 336.453,54.400 336.595 C 54.400 336.736,55.274 337.695,56.343 338.726 C 61.827 344.016,65.231 347.200,65.403 347.200 C 65.508 347.200,66.869 348.460,68.428 350.000 C 69.986 351.540,71.432 352.800,71.641 352.800 C 71.850 352.800,72.831 353.610,73.821 354.600 C 74.811 355.590,75.751 356.401,75.911 356.402 C 76.070 356.403,76.775 356.943,77.478 357.602 C 78.181 358.261,78.964 358.800,79.218 358.800 C 79.471 358.800,80.183 359.340,80.800 360.000 C 81.417 360.660,82.137 361.200,82.400 361.200 C 82.663 361.200,83.383 361.740,84.000 362.400 C 84.617 363.060,85.369 363.600,85.672 363.600 C 85.975 363.600,86.483 363.960,86.800 364.400 C 87.117 364.840,87.657 365.200,88.000 365.200 C 88.343 365.200,88.883 365.560,89.200 366.000 C 89.517 366.440,90.057 366.800,90.400 366.800 C 90.743 366.800,91.283 367.160,91.600 367.600 C 91.917 368.040,92.324 368.400,92.505 368.400 C 92.686 368.400,93.220 368.760,93.692 369.200 C 94.164 369.640,94.787 370.000,95.075 370.000 C 95.364 370.000,95.600 370.152,95.600 370.337 C 95.600 370.523,96.455 371.105,97.500 371.632 C 98.545 372.158,99.490 372.691,99.600 372.815 C 100.023 373.293,104.016 375.200,104.593 375.200 C 104.927 375.200,105.200 375.380,105.200 375.600 C 105.200 375.820,105.560 376.000,106.000 376.000 C 106.440 376.000,106.800 376.180,106.800 376.400 C 106.800 376.620,107.160 376.800,107.600 376.800 C 108.040 376.800,108.400 376.947,108.400 377.126 C 108.400 377.542,111.487 379.200,112.261 379.200 C 112.584 379.200,112.736 379.380,112.600 379.600 C 112.460 379.827,112.796 380.000,113.376 380.000 C 113.939 380.000,114.400 380.180,114.400 380.400 C 114.400 380.620,114.760 380.800,115.200 380.800 C 115.640 380.800,116.000 380.980,116.000 381.200 C 116.000 381.420,116.360 381.600,116.800 381.600 C 117.240 381.600,117.600 381.780,117.600 382.000 C 117.600 382.220,117.960 382.400,118.400 382.400 C 118.840 382.400,119.200 382.580,119.200 382.800 C 119.200 383.020,119.639 383.200,120.176 383.200 C 120.713 383.200,121.264 383.380,121.400 383.600 C 121.536 383.820,121.997 384.000,122.424 384.000 C 122.851 384.000,123.200 384.180,123.200 384.400 C 123.200 384.620,123.560 384.800,124.000 384.800 C 124.440 384.800,124.800 384.980,124.800 385.200 C 124.800 385.420,125.239 385.600,125.776 385.600 C 126.313 385.600,126.864 385.780,127.000 386.000 C 127.136 386.220,127.591 386.400,128.011 386.400 C 128.432 386.400,129.417 386.760,130.200 387.200 C 130.983 387.640,131.968 388.000,132.389 388.000 C 132.809 388.000,133.264 388.180,133.400 388.400 C 133.536 388.620,133.999 388.800,134.429 388.800 C 134.859 388.800,135.523 388.965,135.905 389.166 C 137.215 389.857,142.600 391.328,144.500 391.515 C 145.545 391.618,146.400 391.839,146.400 392.007 C 146.400 392.311,147.848 392.635,151.100 393.059 C 152.035 393.181,152.800 393.442,152.800 393.640 C 152.800 393.838,153.520 394.000,154.400 394.000 C 155.280 394.000,156.000 394.180,156.000 394.400 C 156.000 394.620,156.889 394.800,157.976 394.800 C 159.063 394.800,160.064 394.980,160.200 395.200 C 160.336 395.420,161.337 395.600,162.424 395.600 C 163.511 395.600,164.400 395.780,164.400 396.000 C 164.400 396.229,165.600 396.400,167.200 396.400 C 168.800 396.400,170.000 396.571,170.000 396.800 C 170.000 397.033,171.333 397.200,173.200 397.200 C 175.067 397.200,176.400 397.367,176.400 397.600 C 176.400 397.845,178.333 398.000,181.400 398.000 C 184.283 398.000,186.400 398.161,186.400 398.379 C 186.400 398.609,191.425 398.770,199.200 398.789 C 207.691 398.809,212.000 398.682,212.000 398.410 C 212.000 398.152,213.861 398.000,217.024 398.000 C 220.271 398.000,221.960 397.859,221.800 397.600 C 221.643 397.345,222.785 397.200,224.943 397.200 C 226.808 397.200,228.393 397.030,228.467 396.822 C 228.540 396.614,229.815 396.406,231.300 396.359 C 232.785 396.312,234.000 396.122,234.000 395.937 C 234.000 395.752,235.001 395.600,236.224 395.600 C 237.604 395.600,238.353 395.448,238.200 395.200 C 238.048 394.954,238.721 394.800,239.953 394.800 C 241.053 394.800,242.064 394.620,242.200 394.400 C 242.336 394.180,243.157 394.000,244.024 394.000 C 244.891 394.000,245.600 393.820,245.600 393.600 C 245.600 393.380,246.320 393.200,247.200 393.200 C 248.080 393.200,248.800 393.020,248.800 392.800 C 248.800 392.580,249.520 392.400,250.400 392.400 C 251.280 392.400,252.000 392.246,252.000 392.057 C 252.000 391.868,253.078 391.601,254.395 391.464 C 255.712 391.326,257.107 391.048,257.495 390.846 C 257.883 390.643,259.010 390.263,260.000 390.000 C 260.990 389.737,262.113 389.360,262.495 389.161 C 262.877 388.962,263.541 388.800,263.971 388.800 C 264.401 388.800,264.864 388.620,265.000 388.400 C 265.136 388.180,265.687 388.000,266.224 388.000 C 266.761 388.000,267.200 387.820,267.200 387.600 C 267.200 387.380,267.650 387.200,268.200 387.200 C 268.750 387.200,269.200 387.020,269.200 386.800 C 269.200 386.580,269.740 386.400,270.400 386.400 C 271.060 386.400,271.600 386.220,271.600 386.000 C 271.600 385.780,271.949 385.600,272.376 385.600 C 272.803 385.600,273.264 385.420,273.400 385.200 C 273.536 384.980,273.997 384.800,274.424 384.800 C 274.851 384.800,275.200 384.620,275.200 384.400 C 275.200 384.180,275.560 384.000,276.000 384.000 C 276.440 384.000,276.800 383.820,276.800 383.600 C 276.800 383.380,277.340 383.200,278.000 383.200 C 278.660 383.200,279.200 383.020,279.200 382.800 C 279.200 382.580,279.560 382.400,280.000 382.400 C 280.440 382.400,280.800 382.220,280.800 382.000 C 280.800 381.780,281.160 381.600,281.600 381.600 C 282.040 381.600,282.400 381.420,282.400 381.200 C 282.400 380.980,282.760 380.800,283.200 380.800 C 283.640 380.800,284.000 380.620,284.000 380.400 C 284.000 380.180,284.360 380.000,284.800 380.000 C 285.240 380.000,285.600 379.820,285.600 379.600 C 285.600 379.380,285.960 379.200,286.400 379.200 C 286.840 379.200,287.200 379.020,287.200 378.800 C 287.200 378.580,287.560 378.400,288.000 378.400 C 288.440 378.400,288.800 378.220,288.800 378.000 C 288.800 377.780,289.160 377.600,289.600 377.600 C 290.040 377.600,290.400 377.420,290.400 377.200 C 290.400 376.980,290.670 376.800,291.000 376.800 C 291.330 376.800,291.600 376.620,291.600 376.400 C 291.600 376.180,291.960 376.000,292.400 376.000 C 292.840 376.000,293.200 375.820,293.200 375.600 C 293.200 375.380,293.487 375.200,293.838 375.200 C 294.544 375.200,296.923 373.973,297.133 373.500 C 297.207 373.335,297.612 373.200,298.033 373.200 C 298.455 373.200,298.800 373.020,298.800 372.800 C 298.800 372.580,299.036 372.400,299.325 372.400 C 299.613 372.400,300.236 372.040,300.708 371.600 C 301.180 371.160,301.844 370.800,302.183 370.800 C 302.522 370.800,302.800 370.620,302.800 370.400 C 302.800 370.180,303.025 370.000,303.300 369.999 C 303.575 369.999,304.414 369.474,305.164 368.832 C 305.914 368.191,306.994 367.428,307.564 367.136 C 308.134 366.844,308.891 366.289,309.247 365.903 C 309.603 365.516,310.116 365.200,310.386 365.200 C 310.657 365.200,311.383 364.660,312.000 364.000 C 312.617 363.340,313.369 362.800,313.672 362.800 C 313.975 362.800,314.483 362.440,314.800 362.000 C 315.117 361.560,315.607 361.200,315.888 361.200 C 316.170 361.200,316.400 361.020,316.400 360.800 C 316.400 360.580,316.598 360.400,316.840 360.400 C 317.081 360.400,317.783 359.860,318.400 359.200 C 319.017 358.540,319.764 357.998,320.060 357.997 C 320.357 357.995,321.263 357.365,322.073 356.597 C 322.884 355.828,323.660 355.200,323.799 355.200 C 323.938 355.200,324.929 354.300,326.000 353.200 C 327.071 352.100,328.139 351.200,328.373 351.200 C 328.933 351.200,350.400 329.774,350.400 329.214 C 350.400 328.977,351.345 327.814,352.500 326.630 C 354.711 324.364,356.402 322.325,358.000 320.000 C 358.529 319.230,359.286 318.309,359.681 317.953 C 360.076 317.597,360.400 317.084,360.400 316.814 C 360.400 316.543,360.940 315.817,361.600 315.200 C 362.260 314.583,362.800 313.831,362.800 313.528 C 362.800 313.225,363.160 312.717,363.600 312.400 C 364.040 312.083,364.400 311.543,364.400 311.200 C 364.400 310.857,364.760 310.317,365.200 310.000 C 365.640 309.683,366.000 309.146,366.000 308.808 C 366.000 308.469,366.360 307.968,366.800 307.693 C 367.240 307.418,367.600 306.925,367.600 306.597 C 367.600 306.268,367.750 306.000,367.932 306.000 C 368.115 306.000,368.520 305.505,368.832 304.900 C 369.145 304.295,369.715 303.451,370.100 303.025 C 370.485 302.598,370.800 302.013,370.800 301.725 C 370.800 301.436,370.980 301.200,371.200 301.200 C 371.420 301.200,371.600 300.840,371.600 300.400 C 371.600 299.960,371.759 299.600,371.953 299.600 C 372.322 299.600,374.600 295.297,374.600 294.600 C 374.600 294.380,374.915 293.909,375.300 293.553 C 375.685 293.197,376.000 292.612,376.000 292.253 C 376.000 291.894,376.146 291.600,376.325 291.600 C 376.504 291.600,376.898 290.970,377.200 290.200 C 377.502 289.430,377.896 288.800,378.075 288.800 C 378.254 288.800,378.400 288.440,378.400 288.000 C 378.400 287.560,378.580 287.200,378.800 287.200 C 379.020 287.200,379.200 286.840,379.200 286.400 C 379.200 285.960,379.380 285.600,379.600 285.600 C 379.820 285.600,380.000 285.240,380.000 284.800 C 380.000 284.360,380.180 284.000,380.400 284.000 C 380.620 284.000,380.800 283.561,380.800 283.024 C 380.800 282.487,380.980 281.936,381.200 281.800 C 381.420 281.664,381.600 281.203,381.600 280.776 C 381.600 280.349,381.780 280.000,382.000 280.000 C 382.220 280.000,382.400 279.640,382.400 279.200 C 382.400 278.760,382.580 278.400,382.800 278.400 C 383.020 278.400,383.200 278.040,383.200 277.600 C 383.200 277.160,383.380 276.800,383.600 276.800 C 383.820 276.800,384.000 276.260,384.000 275.600 C 384.000 274.940,384.135 274.399,384.300 274.397 C 384.706 274.393,385.600 272.414,385.600 271.520 C 385.600 271.124,385.780 270.800,386.000 270.800 C 386.220 270.800,386.400 270.438,386.400 269.995 C 386.400 269.552,386.580 268.832,386.800 268.395 C 387.020 267.958,387.380 267.242,387.600 266.805 C 387.820 266.368,388.000 265.659,388.000 265.229 C 388.000 264.799,388.180 264.336,388.400 264.200 C 388.620 264.064,388.800 263.524,388.800 263.000 C 388.800 262.476,388.980 261.936,389.200 261.800 C 389.420 261.664,389.600 261.246,389.600 260.872 C 389.600 260.497,390.050 258.772,390.600 257.040 C 391.150 255.307,391.600 253.284,391.600 252.544 C 391.600 251.805,391.780 251.200,392.000 251.200 C 392.220 251.200,392.400 250.480,392.400 249.600 C 392.400 248.720,392.580 248.000,392.800 248.000 C 393.020 248.000,393.200 247.201,393.200 246.224 C 393.200 245.247,393.380 244.336,393.600 244.200 C 393.820 244.064,394.000 243.254,394.000 242.400 C 394.000 241.546,394.180 240.736,394.400 240.600 C 394.620 240.464,394.800 239.463,394.800 238.376 C 394.800 237.289,394.980 236.400,395.200 236.400 C 395.422 236.400,395.600 235.333,395.600 234.000 C 395.600 232.667,395.778 231.600,396.000 231.600 C 396.229 231.600,396.400 230.400,396.400 228.800 C 396.400 227.200,396.571 226.000,396.800 226.000 C 397.038 226.000,397.200 224.493,397.200 222.280 C 397.200 219.858,397.374 218.372,397.700 218.021 C 398.107 217.583,398.088 217.545,397.600 217.818 C 397.098 218.099,397.083 218.051,397.508 217.526 C 398.426 216.392,397.710 173.200,396.773 173.200 C 396.568 173.200,396.400 171.940,396.400 170.400 C 396.400 168.800,396.229 167.600,396.000 167.600 C 395.778 167.600,395.600 166.533,395.600 165.200 C 395.600 163.867,395.422 162.800,395.200 162.800 C 394.980 162.800,394.800 161.810,394.800 160.600 C 394.800 159.390,394.620 158.400,394.400 158.400 C 394.180 158.400,393.997 157.455,393.994 156.300 C 393.989 154.797,393.878 154.370,393.600 154.800 C 393.322 155.230,393.211 154.803,393.206 153.300 C 393.203 152.145,393.020 151.200,392.800 151.200 C 392.580 151.200,392.400 150.480,392.400 149.600 C 392.400 148.720,392.220 148.000,392.000 148.000 C 391.780 148.000,391.600 147.376,391.600 146.614 C 391.600 145.852,391.356 144.457,391.058 143.514 C 390.759 142.571,390.292 140.990,390.019 140.000 C 389.746 139.010,389.360 137.887,389.161 137.505 C 388.962 137.123,388.800 136.358,388.800 135.805 C 388.800 135.252,388.659 134.800,388.487 134.800 C 388.315 134.800,387.943 133.945,387.661 132.900 C 387.378 131.855,386.979 130.687,386.773 130.305 C 386.568 129.923,386.400 129.338,386.400 129.005 C 386.400 128.672,386.220 128.400,386.000 128.400 C 385.780 128.400,385.600 128.076,385.600 127.680 C 385.600 126.786,384.706 124.807,384.300 124.803 C 384.135 124.801,384.000 124.260,384.000 123.600 C 384.000 122.940,383.820 122.400,383.600 122.400 C 383.380 122.400,383.200 122.040,383.200 121.600 C 383.200 121.160,383.020 120.800,382.800 120.800 C 382.580 120.800,382.400 120.361,382.400 119.824 C 382.400 119.287,382.220 118.736,382.000 118.600 C 381.780 118.464,381.600 118.003,381.600 117.576 C 381.600 117.149,381.420 116.800,381.200 116.800 C 380.980 116.800,380.800 116.440,380.800 116.000 C 380.800 115.560,380.620 115.200,380.400 115.200 C 380.180 115.200,380.000 114.840,380.000 114.400 C 380.000 113.960,379.820 113.600,379.600 113.600 C 379.380 113.600,379.200 113.240,379.200 112.800 C 379.200 112.360,379.020 112.000,378.800 112.000 C 378.580 112.000,378.400 111.640,378.400 111.200 C 378.400 110.760,378.254 110.400,378.075 110.400 C 377.896 110.400,377.502 109.770,377.200 109.000 C 376.898 108.230,376.504 107.600,376.325 107.600 C 376.146 107.600,376.000 107.240,376.000 106.800 C 376.000 106.360,375.820 106.000,375.600 106.000 C 375.380 106.000,375.200 105.662,375.200 105.249 C 375.200 104.836,374.930 104.274,374.600 104.000 C 374.270 103.726,374.000 103.164,374.000 102.751 C 374.000 102.338,373.840 102.000,373.643 102.000 C 373.447 102.000,373.013 101.315,372.678 100.477 C 372.343 99.640,371.783 98.718,371.434 98.428 C 371.085 98.139,370.800 97.647,370.800 97.334 C 370.800 97.022,370.440 96.380,370.000 95.908 C 369.560 95.436,369.200 94.813,369.200 94.525 C 369.200 94.236,369.020 94.000,368.800 94.000 C 368.580 94.000,368.400 93.770,368.400 93.488 C 368.400 93.207,368.040 92.717,367.600 92.400 C 367.160 92.083,366.800 91.543,366.800 91.200 C 366.800 90.857,366.440 90.317,366.000 90.000 C 365.560 89.683,365.200 89.238,365.200 89.012 C 365.199 88.785,364.753 88.082,364.208 87.448 C 363.663 86.814,363.331 86.111,363.470 85.886 C 363.616 85.651,363.527 85.598,363.262 85.762 C 363.001 85.923,362.800 85.815,362.800 85.512 C 362.800 85.217,362.440 84.717,362.000 84.400 C 361.560 84.083,361.200 83.575,361.200 83.272 C 361.200 82.969,360.660 82.217,360.000 81.600 C 359.340 80.983,358.800 80.181,358.800 79.816 C 358.800 79.451,358.620 79.264,358.400 79.400 C 358.180 79.536,358.000 79.410,358.000 79.120 C 358.000 78.829,357.550 78.107,357.000 77.513 C 356.450 76.920,356.000 76.332,356.000 76.207 C 356.000 76.082,355.190 75.169,354.200 74.179 C 353.210 73.189,352.400 72.207,352.400 71.997 C 352.400 71.787,351.230 70.445,349.800 69.015 C 348.370 67.585,347.200 66.309,347.200 66.179 C 347.200 65.700,346.086 64.847,345.814 65.119 C 345.660 65.274,345.592 65.220,345.664 65.000 C 345.840 64.457,344.595 62.738,344.264 63.069 C 344.119 63.214,344.000 63.115,344.000 62.848 C 344.000 62.217,342.158 60.375,341.842 60.691 C 341.709 60.824,341.600 60.730,341.600 60.481 C 341.600 59.871,336.154 54.400,335.547 54.400 C 335.283 54.400,335.177 54.290,335.311 54.156 C 335.551 53.916,333.527 52.000,333.034 52.000 C 332.896 52.000,331.550 50.785,330.042 49.300 C 328.535 47.815,327.102 46.556,326.859 46.503 C 326.615 46.449,325.510 45.504,324.403 44.403 C 323.295 43.301,322.220 42.400,322.013 42.400 C 321.806 42.400,321.186 41.950,320.636 41.400 C 320.086 40.850,319.438 40.400,319.195 40.400 C 318.952 40.400,318.864 40.220,319.000 40.000 C 319.136 39.780,318.949 39.600,318.584 39.600 C 318.219 39.600,317.417 39.060,316.800 38.400 C 316.183 37.740,315.431 37.200,315.128 37.200 C 314.825 37.200,314.317 36.840,314.000 36.400 C 313.683 35.960,313.175 35.600,312.872 35.600 C 312.569 35.600,311.817 35.060,311.200 34.400 C 310.583 33.740,309.857 33.200,309.586 33.200 C 309.316 33.200,308.803 32.884,308.447 32.497 C 308.091 32.111,307.305 31.540,306.700 31.230 C 306.095 30.919,305.600 30.515,305.600 30.332 C 305.600 30.150,305.330 30.000,305.000 30.000 C 304.670 30.000,304.400 29.820,304.400 29.600 C 304.400 29.380,304.122 29.200,303.783 29.200 C 303.444 29.200,302.780 28.840,302.308 28.400 C 301.836 27.960,301.213 27.600,300.925 27.600 C 300.636 27.600,300.400 27.420,300.400 27.200 C 300.400 26.980,300.040 26.800,299.600 26.800 C 299.160 26.800,298.800 26.653,298.800 26.474 C 298.800 26.076,296.199 24.800,295.386 24.800 C 295.064 24.800,294.800 24.620,294.800 24.400 C 294.800 24.180,294.522 24.000,294.183 24.000 C 293.844 24.000,293.180 23.640,292.708 23.200 C 292.236 22.760,291.613 22.400,291.325 22.400 C 291.036 22.400,290.800 22.254,290.800 22.075 C 290.800 21.896,290.170 21.502,289.400 21.200 C 288.630 20.898,288.000 20.504,288.000 20.325 C 288.000 20.146,287.640 20.000,287.200 20.000 C 286.760 20.000,286.400 19.820,286.400 19.600 C 286.400 19.380,286.040 19.200,285.600 19.200 C 285.160 19.200,284.800 19.020,284.800 18.800 C 284.800 18.580,284.451 18.400,284.024 18.400 C 283.597 18.400,283.136 18.220,283.000 18.000 C 282.864 17.780,282.313 17.600,281.776 17.600 C 281.239 17.600,280.800 17.420,280.800 17.200 C 280.800 16.980,280.440 16.800,280.000 16.800 C 279.560 16.800,279.200 16.620,279.200 16.400 C 279.200 16.180,278.840 16.000,278.400 16.000 C 277.960 16.000,277.600 15.820,277.600 15.600 C 277.600 15.380,277.060 15.200,276.400 15.200 C 275.740 15.200,275.200 15.020,275.200 14.800 C 275.200 14.580,274.840 14.400,274.400 14.400 C 273.960 14.400,273.600 14.220,273.600 14.000 C 273.600 13.780,273.150 13.600,272.600 13.600 C 272.050 13.600,271.600 13.420,271.600 13.200 C 271.600 12.980,271.251 12.800,270.824 12.800 C 270.397 12.800,269.936 12.620,269.800 12.400 C 269.664 12.180,269.124 12.000,268.600 12.000 C 268.076 12.000,267.536 11.820,267.400 11.600 C 267.264 11.380,266.713 11.200,266.176 11.200 C 265.639 11.200,265.200 11.020,265.200 10.800 C 265.200 10.580,264.660 10.400,264.000 10.400 C 263.340 10.400,262.800 10.220,262.800 10.000 C 262.800 9.780,262.395 9.597,261.900 9.594 C 261.405 9.591,260.280 9.329,259.400 9.012 C 258.520 8.695,257.215 8.427,256.500 8.418 C 255.785 8.408,255.200 8.220,255.200 8.000 C 255.200 7.780,254.671 7.600,254.024 7.600 C 253.377 7.600,252.736 7.420,252.600 7.200 C 252.464 6.980,251.733 6.800,250.976 6.800 C 250.219 6.800,249.600 6.620,249.600 6.400 C 249.600 6.180,248.700 6.000,247.600 6.000 C 246.500 6.000,245.600 5.820,245.600 5.600 C 245.600 5.380,244.880 5.200,244.000 5.200 C 243.120 5.200,242.400 5.020,242.400 4.800 C 242.400 4.580,241.601 4.400,240.624 4.400 C 239.647 4.400,238.736 4.220,238.600 4.000 C 238.464 3.780,237.373 3.600,236.176 3.600 C 234.979 3.600,234.000 3.420,234.000 3.200 C 234.000 2.971,232.800 2.800,231.200 2.800 C 229.660 2.800,228.400 2.634,228.400 2.430 C 228.400 2.036,224.829 1.705,216.900 1.365 C 214.205 1.249,212.000 0.985,212.000 0.777 C 212.000 0.549,206.949 0.400,199.200 0.400 C 190.933 0.400,186.400 0.542,186.400 0.800 M204.400 51.181 C 206.710 51.391,211.570 51.759,215.200 51.997 C 232.247 53.116,248.999 57.612,265.600 65.524 C 270.373 67.799,280.735 74.276,281.958 75.749 C 282.375 76.252,262.441 97.200,261.545 97.200 C 261.334 97.200,259.685 96.312,257.881 95.227 C 252.686 92.102,247.580 89.854,240.000 87.353 C 239.010 87.027,237.840 86.601,237.400 86.406 C 234.799 85.257,228.890 83.627,223.000 82.436 C 216.390 81.099,192.514 80.528,185.400 81.537 C 179.505 82.373,173.239 83.524,170.000 84.366 C 153.031 88.781,138.856 95.772,125.476 106.324 C 110.612 118.047,97.477 136.004,88.992 156.200 C 87.263 160.315,85.009 167.195,84.046 171.300 C 79.665 189.965,79.416 206.018,83.219 224.600 C 84.319 229.973,87.468 239.951,89.428 244.269 C 91.210 248.196,95.693 257.187,96.690 258.832 C 97.300 259.839,98.700 262.154,99.800 263.974 C 103.488 270.079,112.520 281.449,116.661 285.200 C 129.515 296.842,141.338 304.384,157.400 311.187 C 160.883 312.662,168.243 315.049,172.100 315.954 C 176.789 317.055,178.495 317.376,185.400 318.462 C 194.412 319.879,216.627 318.546,227.600 315.930 C 231.857 314.915,245.474 309.544,254.200 305.438 C 261.036 302.221,260.075 302.155,263.805 306.100 C 265.520 307.915,268.915 311.470,271.348 314.000 C 273.781 316.530,276.948 319.826,278.386 321.324 L 281.000 324.049 280.000 324.870 C 276.130 328.048,264.684 333.752,252.200 338.724 C 240.278 343.472,236.050 344.681,225.400 346.383 C 222.386 346.865,219.044 347.418,216.800 347.805 C 192.053 352.072,159.132 346.302,134.200 333.329 C 123.638 327.833,117.934 324.309,109.831 318.271 C 90.716 304.027,73.650 282.316,63.634 259.500 C 63.175 258.455,62.413 256.745,61.941 255.700 C 41.706 210.941,49.243 152.160,80.538 110.667 C 92.124 95.306,114.066 75.679,124.800 71.076 C 125.130 70.934,126.300 70.280,127.400 69.623 C 130.699 67.652,140.761 62.775,144.800 61.190 C 155.834 56.862,166.650 54.120,180.400 52.167 C 187.698 51.130,198.827 50.673,204.400 51.181 M309.449 98.113 C 320.373 109.683,329.243 122.960,335.293 136.800 C 335.630 137.570,336.182 138.830,336.519 139.600 C 338.122 143.252,341.424 151.805,342.619 155.400 C 345.429 163.854,346.835 170.402,348.074 180.800 C 348.758 186.538,348.770 212.461,348.092 217.800 C 347.812 220.000,347.394 223.330,347.162 225.200 C 346.172 233.190,342.338 246.452,338.747 254.310 C 338.116 255.691,337.600 256.907,337.600 257.014 C 337.600 257.682,330.793 271.775,329.396 274.000 C 328.912 274.770,327.564 276.930,326.400 278.800 C 321.806 286.179,313.618 296.669,307.440 303.089 L 305.045 305.578 302.422 303.118 C 300.980 301.765,296.160 297.059,291.711 292.661 L 283.623 284.665 286.562 281.589 C 292.254 275.631,300.421 264.199,305.271 255.400 C 312.117 242.979,316.194 229.737,318.446 212.600 C 319.432 205.103,318.873 182.873,317.526 176.000 C 313.176 153.804,302.792 133.782,288.401 119.840 L 284.726 116.280 295.260 105.740 C 301.054 99.943,305.998 95.200,306.246 95.200 C 306.495 95.200,307.936 96.511,309.449 98.113 M178.033 139.747 C 179.233 140.176,182.717 142.106,192.300 147.648 C 193.015 148.062,194.230 148.760,195.000 149.200 C 197.584 150.676,198.961 151.473,207.800 156.598 C 217.284 162.097,218.460 162.777,220.600 164.000 C 223.881 165.875,246.744 179.104,252.600 182.516 C 255.240 184.054,257.760 185.517,258.200 185.767 C 268.500 191.616,271.314 195.374,269.991 201.513 C 268.816 206.963,267.035 208.583,254.400 215.697 C 253.630 216.131,252.820 216.620,252.600 216.785 C 252.380 216.950,251.210 217.627,250.000 218.290 C 248.294 219.224,231.000 229.179,223.400 233.602 C 222.740 233.986,215.720 238.036,207.800 242.601 C 199.880 247.167,192.860 251.217,192.200 251.601 C 178.715 259.455,177.548 260.000,174.211 260.000 C 169.533 260.000,165.579 257.546,163.611 253.423 L 162.400 250.886 162.400 200.058 C 162.400 150.142,162.414 149.191,163.203 147.083 C 165.449 141.080,172.292 137.695,178.033 139.747 "
              stroke="none" fill="#5c84dc" fill-rule="evenodd"></path>
    </g>
</svg>